<?xml version="1.0" encoding="utf-8"?>
<!-- Generator: Adobe Illustrator 25.0.0, SVG Export Plug-In . SVG Version: 6.00 Build 0)  -->
<svg version="1.1" id="Calque_1" xmlns="http://www.w3.org/2000/svg" xmlns:xlink="http://www.w3.org/1999/xlink" x="0px" y="0px"
	 viewBox="0 0 24 24" style="enable-background:new 0 0 24 24;" xml:space="preserve">
<style type="text/css">
	.st0{fill:#FFFFFF;}
</style>
<path class="st0" d="M12,7.5c0.7,0,1.3,0.2,1.8,0.7c0.5,0.5,0.7,1.1,0.7,1.8c0,1.1-0.5,1.8-1.5,2.3V21h-2v-8.7
	c-1-0.5-1.5-1.2-1.5-2.3c0-0.7,0.3-1.3,0.7-1.8S11.3,7.5,12,7.5 M16.7,5.3c1.2,1.2,1.9,2.8,2,4.7c0,1.8-0.7,3.4-2,4.7l-1.2-1.2
	c1-0.9,1.5-2.1,1.5-3.5c0-1.3-0.5-2.5-1.5-3.5L16.7,5.3 M6.1,4.1C4.5,5.7,3.7,7.6,3.7,10s0.8,4.3,2.4,5.9l-1.2,1.2
	C3,15.1,2,12.7,2,10s1-5.1,2.9-7.1L6.1,4.1 M19.1,2.9C21,4.9,22,7.3,22,10c0,2.8-1,5.2-2.9,7.1l-1.2-1.2c1.6-1.6,2.4-3.6,2.4-5.9
	s-0.8-4.3-2.4-5.9L19.1,2.9 M7.3,5.3l1.2,1.2C7.5,7.4,7,8.6,7,10c0,1.3,0.5,2.5,1.5,3.5l-1.2,1.2c-1.3-1.3-2-2.9-2-4.7
	S6,6.6,7.3,5.3z"/>
</svg>
