<svg id="b66787ff-3400-4fbe-ad76-1f781527729d" data-name="Calque 1" xmlns="http://www.w3.org/2000/svg" xmlns:xlink="http://www.w3.org/1999/xlink" width="2008.33" height="1022.22" viewBox="0 0 2008.33 1022.22"><defs><linearGradient id="bd5ad74b-9656-4479-85cf-90da47bdb018" x1="6723.02" y1="-2562.99" x2="7536.91" y2="-2562.99" gradientTransform="translate(7589.37 3689.06) rotate(-135)" gradientUnits="userSpaceOnUse"><stop offset="0" stop-color="#cfcece" stop-opacity="0"/><stop offset="1" stop-color="#a3a3a3"/></linearGradient><linearGradient id="af0953ee-9c79-45f7-97e4-2e2ba936c250" x1="1584.67" y1="790.44" x2="1970.78" y2="790.44" gradientUnits="userSpaceOnUse"><stop offset="0" stop-color="#cfcece" stop-opacity="0"/><stop offset="1" stop-color="#969696"/></linearGradient></defs><path d="M2008.33,788.89c0,128.86-104.46,233.33-233.33,233.33H306.94C137.42,1022.22,0,884.8,0,715.28A307,307,0,0,1,275.65,409.9,466.82,466.82,0,0,1,1142.34,232a376.43,376.43,0,0,1,568.77,323.56H1775a233.33,233.33,0,0,1,233.33,233.34Z" fill="#cfcece"/><circle cx="735.42" cy="459.72" r="406.94" fill="url(#bd5ad74b-9656-4479-85cf-90da47bdb018)"/><circle cx="1777.72" cy="790.44" r="193.06" fill="url(#af0953ee-9c79-45f7-97e4-2e2ba936c250)"/></svg>