<svg xmlns="http://www.w3.org/2000/svg" xmlns:xlink="http://www.w3.org/1999/xlink" width="543.6mm" height="543.6mm" viewBox="0 0 1540.91 1540.91"><defs><linearGradient id="f64e4443-be3c-48bb-b9f2-8c8edeecf490" x1="225.66" y1="225.66" x2="1315.25" y2="1315.25" gradientUnits="userSpaceOnUse"><stop offset="0" stop-color="#f9fcff"/><stop offset="1" stop-color="#ddecfa"/></linearGradient></defs><g id="e3cc7e8e-3707-49fe-92f1-b40ef9395cd7" data-name="Calque 2"><g id="a8185289-b3b9-44ec-a8d1-3bd3a1c702bf" data-name="Calque 1"><path d="M1540.91,770.45c0,425.51-344.94,770.46-770.46,770.46a766.77,766.77,0,0,1-405.62-115.3C201.75,1324.43,79.25,1164.06,27.32,974.52A771.2,771.2,0,0,1,0,770.45C0,344.94,344.94,0,770.45,0S1540.91,344.94,1540.91,770.45Z" fill="url(#f64e4443-be3c-48bb-b9f2-8c8edeecf490)"/><path d="M473.08,1203.61a281.24,281.24,0,0,1-108.25,222C201.75,1324.43,79.25,1164.06,27.32,974.52a280.43,280.43,0,0,1,164-52.65C347,921.87,473.08,1048,473.08,1203.61Z" fill="#718389" opacity="0.32"/><circle cx="1141.43" cy="700.39" r="339.65" fill="#718389" opacity="0.32"/><circle cx="770.45" cy="1263.08" r="188.61" fill="#718389" opacity="0.32"/><circle cx="299.38" cy="384.34" r="104.03" fill="#718389" opacity="0.32"/><circle cx="793.64" cy="326.77" r="57.57" fill="#718389" opacity="0.32"/><ellipse cx="504.39" cy="722.3" rx="144" ry="176.87" fill="#fff"/><ellipse cx="1036.56" cy="700.39" rx="144" ry="176.87" fill="#fff"/><line x1="656.21" y1="1096.26" x2="656.21" y2="1018.04" fill="none" stroke="#4ea0d8" stroke-miterlimit="10" stroke-width="14"/><line x1="691.69" y1="1063.44" x2="691.69" y2="985.21" fill="none" stroke="#4ea0d8" stroke-miterlimit="10" stroke-width="14"/><path d="M709.43,1077.13a17.74,17.74,0,1,1-35.48,0c0-9.8,17.74-35.48,17.74-35.48S709.43,1067.33,709.43,1077.13Z" fill="#4ea0d8"/><line x1="837.26" y1="1086.83" x2="837.26" y2="1008.61" fill="none" stroke="#4ea0d8" stroke-miterlimit="10" stroke-width="14"/><path d="M855,1100.52a17.74,17.74,0,0,1-35.48,0c0-9.79,17.74-35.47,17.74-35.47S855,1090.73,855,1100.52Z" fill="#4ea0d8"/><path d="M656.21,1047.72s16.56-29.25,35.48-13.94c14,11.35,0-32.7,0-32.7l-35.48,17Z" fill="#4ea0d8"/><path d="M854.64,1021.61c-5.31-1.34-10.08-2.92-14.87-4.19s-9.32-2.54-13.73-3.68a226.55,226.55,0,0,0-25.36-4.75,202.07,202.07,0,0,0-46.28-.31c-7.64.73-15.33,2-23.26,3.18l-24.65,3.81c-8.55,1.27-17.46,2.54-26.94,3.63-4.75.54-9.63,1-14.72,1.47-2.54.23-5.17.37-7.82.55s-5.4.31-8.31.33l-.62-.79a50.71,50.71,0,0,1,3.2-7.93,82.47,82.47,0,0,1,4-7.22A98.55,98.55,0,0,1,665,992.78a113.26,113.26,0,0,1,24.25-20.55,119.74,119.74,0,0,1,29.29-13.38,125.32,125.32,0,0,1,32.7-5.2,129.27,129.27,0,0,1,16.9.64,124.4,124.4,0,0,1,16.77,3c1.38.35,2.75.74,4.11,1.13l4.07,1.29c1.35.43,2.68,1,4,1.47s2.65,1,3.95,1.58a104.35,104.35,0,0,1,15,7.86,98.7,98.7,0,0,1,24.52,21.89,89.57,89.57,0,0,1,8.82,13.46,73.93,73.93,0,0,1,6,14.9Z" fill="#282828"/><circle cx="462.89" cy="817.78" r="59.48" fill="#282828"/><circle cx="1096.04" cy="604.91" r="59.48" fill="#282828"/><path d="M674,1110a17.74,17.74,0,1,1-35.47,0c0-9.79,17.73-35.47,17.73-35.47S674,1100.16,674,1110Z" fill="#4ea0d8"/></g></g></svg>