<svg id="f5c72740-1576-492d-b0a9-8d61dee59c85" data-name="Calque 1" xmlns="http://www.w3.org/2000/svg" xmlns:xlink="http://www.w3.org/1999/xlink" width="2008.33" height="1542.37" viewBox="0 0 2008.33 1542.37"><defs><radialGradient id="b078bebc-2e9c-495a-978f-4742c6f1cebf" cx="-5431.8" cy="1752.44" r="3.56" gradientTransform="matrix(134, 0, 0, -134, 729151.96, 235423.85)" gradientUnits="userSpaceOnUse"><stop offset="0" stop-color="#fdd490"/><stop offset="1" stop-color="#fdcb6b"/></radialGradient><linearGradient id="b6f55ca1-bce4-48ab-9006-0bbfae408d33" x1="1584.67" y1="1122.59" x2="1970.78" y2="1122.59" gradientUnits="userSpaceOnUse"><stop offset="0" stop-color="#cfcece" stop-opacity="0"/><stop offset="1" stop-color="#969696"/></linearGradient><linearGradient id="a1f5b3c8-8dab-4ba5-a542-7abe46a0cd22" x1="-8849.08" y1="3555.05" x2="-8035.2" y2="3555.05" gradientTransform="translate(-7747.88 -2663.83) rotate(-135)" gradientUnits="userSpaceOnUse"><stop offset="0" stop-color="#cfcece"/><stop offset="1" stop-color="#a3a3a3"/></linearGradient></defs><circle id="f20d044a-863b-4a77-ac32-2f7f35ee7679" data-name="Ellipse 1-2" cx="1290.24" cy="597.39" r="476.56" fill="url(#b078bebc-2e9c-495a-978f-4742c6f1cebf)"/><path d="M2008.33,1121c0,128.86-104.46,233.33-233.33,233.33H306.94C137.42,1354.36,0,1216.94,0,1047.42A307,307,0,0,1,275.65,742a466.82,466.82,0,0,1,866.69-177.91,376.43,376.43,0,0,1,568.77,323.56H1775A233.33,233.33,0,0,1,2008.33,1121Z" fill="#cfcece" fill-opacity="0.91"/><circle cx="1777.72" cy="1122.59" r="193.06" fill="url(#b6f55ca1-bce4-48ab-9006-0bbfae408d33)"/><circle cx="735.42" cy="791.86" r="406.94" fill="url(#a1f5b3c8-8dab-4ba5-a542-7abe46a0cd22)"/></svg>