<svg xmlns="http://www.w3.org/2000/svg" viewBox="0 0 1637.22 1673.95"><defs><style>.cls-1{fill:#6bbcea;}.cls-2{fill:#c1c7ce;}.cls-3{fill:#fff;}.cls-4{fill:#282828;}.cls-5{fill:#a3b4cc;}.cls-6{fill:none;stroke:#282828;stroke-linecap:round;stroke-linejoin:round;stroke-width:50px;}</style></defs><g id="Calque_2" data-name="Calque 2"><g id="Calque_1-2" data-name="Calque 1"><path class="cls-1" d="M910,1583.77a90.18,90.18,0,1,1-180.36,0c0-49.81,90.18-204.08,90.18-204.08S910,1534,910,1583.77Z"/><path class="cls-1" d="M454.13,1523.56a72.92,72.92,0,0,1-145.83,0c0-40.27,72.92-165,72.92-165S454.13,1483.29,454.13,1523.56Z"/><path class="cls-1" d="M1328.92,1523.56a72.92,72.92,0,0,1-145.83,0c0-40.27,72.91-165,72.91-165S1328.92,1483.29,1328.92,1523.56Z"/><path class="cls-2" d="M1637.22,944c0,212.66-172.39,385-385,385a383.18,383.18,0,0,1-216.78-66.79,385.21,385.21,0,0,1-433.57,0,383.2,383.2,0,0,1-216.78,66.79c-212.66,0-385-172.39-385-385C0,771.81,113,626,269,576.77a336.11,336.11,0,0,1-10.19-82.41c0-184.48,148.79-334.21,332.92-335.72C625.51,66.08,714.34,0,818.61,0s193.1,66.08,226.92,158.64c184.13,1.51,332.92,151.24,332.92,335.72a336.11,336.11,0,0,1-10.19,82.41C1524.18,626,1637.22,771.8,1637.22,944Z"/><ellipse class="cls-3" cx="554.38" cy="674.56" rx="129.51" ry="166.89"/><circle class="cls-4" cx="588.87" cy="674.56" r="59.48"/><ellipse class="cls-3" cx="1082.84" cy="674.56" rx="129.51" ry="166.89"/><circle class="cls-4" cx="1048.35" cy="674.56" r="59.48"/><path class="cls-5" d="M630.23,1141.31a270.81,270.81,0,0,1-43.29,49.23,303.58,303.58,0,0,1-54.48,38.92,321.06,321.06,0,0,1-130.61,39.6,326,326,0,0,1-202.36-50.12l-7.42-5c-2.45-1.69-5-3.29-7.35-5.06-4.75-3.59-9.55-7.12-14.24-10.8-4.54-3.83-9.1-7.67-13.59-11.58l-13-12.24-12.25-13c-3.9-4.49-7.74-9-11.58-13.6-3.67-4.68-7.2-9.48-10.79-14.23-1.77-2.39-3.37-4.91-5.06-7.36l-5-7.41A326,326,0,0,1,49.13,916.35,321.18,321.18,0,0,1,88.74,785.74a303.47,303.47,0,0,1,38.91-54.49A271.53,271.53,0,0,1,176.89,688a.51.51,0,0,1,.71.7,461.09,461.09,0,0,0-32,54.84,376.76,376.76,0,0,0-22.45,57.09,354.61,354.61,0,0,0-12.36,58.5,342.22,342.22,0,0,0-2.19,58.54,317.16,317.16,0,0,0,25.69,110.94,300.36,300.36,0,0,0,155.3,155.29,316.72,316.72,0,0,0,110.94,25.69,342.09,342.09,0,0,0,58.53-2.18,353.19,353.19,0,0,0,58.5-12.37,375.41,375.41,0,0,0,57.1-22.45,458.74,458.74,0,0,0,54.83-32,.5.5,0,0,1,.71.14A.51.51,0,0,1,630.23,1141.31Z"/><path class="cls-5" d="M1007.7,1140.6a458.74,458.74,0,0,0,54.83,32,375.41,375.41,0,0,0,57.1,22.45,353.19,353.19,0,0,0,58.5,12.37,342.09,342.09,0,0,0,58.53,2.18,316.72,316.72,0,0,0,110.94-25.69,300.36,300.36,0,0,0,155.3-155.29,317.16,317.16,0,0,0,25.69-110.94,342.22,342.22,0,0,0-2.19-58.54A354.61,354.61,0,0,0,1514,800.6a376.76,376.76,0,0,0-22.45-57.09,461.09,461.09,0,0,0-32-54.84.51.51,0,0,1,.14-.7.5.5,0,0,1,.57,0,271.53,271.53,0,0,1,49.24,43.28,303.47,303.47,0,0,1,38.91,54.49,321.18,321.18,0,0,1,39.61,130.61A326,326,0,0,1,1538,1118.71l-5,7.41c-1.69,2.45-3.29,5-5.06,7.36-3.59,4.75-7.12,9.55-10.79,14.23-3.84,4.55-7.68,9.11-11.58,13.6l-12.25,13-13,12.24c-4.49,3.91-9,7.75-13.59,11.58-4.69,3.68-9.49,7.21-14.24,10.8-2.39,1.77-4.9,3.37-7.35,5.06l-7.42,5a326,326,0,0,1-202.36,50.12,321.06,321.06,0,0,1-130.61-39.6,303.58,303.58,0,0,1-54.48-38.92,270.81,270.81,0,0,1-43.29-49.23.5.5,0,0,1,.14-.71A.51.51,0,0,1,1007.7,1140.6Z"/><ellipse class="cls-2" cx="542.14" cy="822.79" rx="190.96" ry="97.43"/><ellipse class="cls-2" cx="542.14" cy="518.43" rx="190.96" ry="97.43"/><ellipse class="cls-2" cx="1082.84" cy="822.79" rx="190.96" ry="97.43"/><ellipse class="cls-2" cx="1082.84" cy="518.43" rx="190.96" ry="97.43"/><path class="cls-6" d="M628.17,880.89c105.18-105.18,275.7-105.18,380.88,0"/></g></g></svg>