<svg id="b86494c1-4c81-4958-89ef-5e76456fa38b" data-name="Calque 1" xmlns="http://www.w3.org/2000/svg" xmlns:xlink="http://www.w3.org/1999/xlink" width="2008.33" height="1542.37" viewBox="0 0 2008.33 1542.37"><defs><linearGradient id="a2dae7d7-b116-491d-9f2f-c5b827e0bf53" x1="3024.98" y1="-1031.21" x2="3838.87" y2="-1031.21" gradientTransform="translate(3891.33 2157.28) rotate(-135)" gradientUnits="userSpaceOnUse"><stop offset="0" stop-color="#cfcece" stop-opacity="0"/><stop offset="1" stop-color="#a3a3a3"/></linearGradient><linearGradient id="bcca9689-6437-403b-a87b-1853c9081e5c" x1="1584.67" y1="790.44" x2="1970.78" y2="790.44" gradientUnits="userSpaceOnUse"><stop offset="0" stop-color="#cfcece" stop-opacity="0"/><stop offset="1" stop-color="#969696"/></linearGradient></defs><path d="M2008.33,788.89c0,128.86-104.46,233.33-233.33,233.33H306.94C137.42,1022.22,0,884.8,0,715.28A307,307,0,0,1,275.65,409.9,466.82,466.82,0,0,1,1142.34,232a376.43,376.43,0,0,1,568.77,323.56H1775a233.33,233.33,0,0,1,233.33,233.34Z" fill="#cfcece"/><circle cx="735.42" cy="459.72" r="406.94" fill="url(#a2dae7d7-b116-491d-9f2f-c5b827e0bf53)"/><circle cx="1777.72" cy="790.44" r="193.06" fill="url(#bcca9689-6437-403b-a87b-1853c9081e5c)"/><path d="M1044.74,1344.49a40.58,40.58,0,1,1-81.15,0c0-22.4,40.58-83.08,40.58-83.08S1044.74,1322.09,1044.74,1344.49Z" fill="#8ad1f0"/><path d="M1492.39,1344.49a40.58,40.58,0,1,1-81.15,0c0-22.4,40.58-83.08,40.58-83.08S1492.39,1322.09,1492.39,1344.49Z" fill="#8ad1f0"/><path d="M597.09,1344.49a40.58,40.58,0,1,1-81.15,0c0-22.4,40.57-83.08,40.57-83.08S597.09,1322.09,597.09,1344.49Z" fill="#8ad1f0"/><path d="M824.87,1177a40.58,40.58,0,1,1-81.15,0c0-22.4,40.57-83.07,40.57-83.07S824.87,1154.61,824.87,1177Z" fill="#8ad1f0"/><path d="M1704.35,1177a40.57,40.57,0,1,1-81.14,0c0-22.4,40.57-83.07,40.57-83.07S1704.35,1154.61,1704.35,1177Z" fill="#8ad1f0"/><path d="M385.12,1177a40.57,40.57,0,1,1-81.14,0c0-22.4,40.57-83.07,40.57-83.07S385.12,1154.61,385.12,1177Z" fill="#8ad1f0"/><path d="M1264.61,1177a40.58,40.58,0,1,1-81.15,0c0-22.4,40.58-83.07,40.58-83.07S1264.61,1154.61,1264.61,1177Z" fill="#8ad1f0"/></svg>