<?xml version="1.0" encoding="utf-8"?>
<!-- Generator: Adobe Illustrator 25.0.0, SVG Export Plug-In . SVG Version: 6.00 Build 0)  -->
<svg version="1.1" id="Calque_1" xmlns="http://www.w3.org/2000/svg" xmlns:xlink="http://www.w3.org/1999/xlink" x="0px" y="0px"
	 viewBox="0 0 24 24" style="enable-background:new 0 0 24 24;" xml:space="preserve">
<style type="text/css">
	.st0{fill:#83C7FF;}
</style>
<path class="st0" d="M20.8,13.9l-2.3,0.6l-2-1.1v-2.9l2-1.1l2.3,0.6l0.5-1.9l-1.8-0.5L20,5.9l-1.9-0.5l-0.6,2.3l-2,1.1L13,7.4V5.1
	l1.7-1.7L13.3,2L12,3.3L10.7,2L9.3,3.4L11,5.1v2.3L8.5,8.8l-2-1.1L5.9,5.4L4,5.9l0.5,1.8L2.7,8.1l0.5,1.9l2.3-0.6l2,1.1v2.9l-2,1.1
	L3.2,14l-0.5,1.9l1.8,0.5L4,18.1l1.9,0.5l0.6-2.3l2-1.1l2.4,1.4v2.3l-1.7,1.7l1.4,1.4l1.3-1.3l1.3,1.3l1.4-1.4L13,18.9v-2.3l2.5-1.5
	l2,1.1l0.6,2.3l1.9-0.5l-0.5-1.8l1.8-0.5L20.8,13.9 M9.5,10.6L12,9.1l2.5,1.5v2.9L12,14.9l-2.5-1.5V10.6z"/>
</svg>
