<svg id="fcce927d-4a85-4087-9d60-0163548eedcc" data-name="Calque 1" xmlns="http://www.w3.org/2000/svg" xmlns:xlink="http://www.w3.org/1999/xlink" width="2008.33" height="1542.37" viewBox="0 0 2008.33 1542.37"><defs><linearGradient id="ad3eca27-66d4-4da0-bb9f-88bbcd71f1fc" x1="-4574.17" y1="2116.46" x2="-3760.28" y2="2116.46" gradientTransform="translate(-3707.82 -990.39) rotate(-135)" gradientUnits="userSpaceOnUse"><stop offset="0" stop-color="#cfcece" stop-opacity="0"/><stop offset="1" stop-color="#a3a3a3"/></linearGradient><linearGradient id="fa0cf96e-3308-44e6-b55d-95699e908199" x1="1584.67" y1="790.44" x2="1970.78" y2="790.44" gradientUnits="userSpaceOnUse"><stop offset="0" stop-color="#cfcece" stop-opacity="0"/><stop offset="1" stop-color="#969696"/></linearGradient></defs><path d="M2008.33,788.89c0,128.86-104.46,233.33-233.33,233.33H306.94C137.42,1022.22,0,884.8,0,715.28A307,307,0,0,1,275.65,409.9,466.82,466.82,0,0,1,1142.34,232a376.43,376.43,0,0,1,568.77,323.56H1775a233.33,233.33,0,0,1,233.33,233.34Z" fill="#cfcece"/><circle cx="735.42" cy="459.72" r="406.94" fill="url(#ad3eca27-66d4-4da0-bb9f-88bbcd71f1fc)"/><circle cx="1777.72" cy="790.44" r="193.06" fill="url(#fa0cf96e-3308-44e6-b55d-95699e908199)"/><rect x="406.71" y="1081.25" width="3.35" height="90.49" transform="translate(-676.94 618.71) rotate(-45)" fill="#8ad1f0"/><rect x="374.68" y="1099.58" width="7.57" height="3.35" transform="translate(-290.5 148.11) rotate(-16.1)" fill="#8ad1f0"/><rect x="377.08" y="1104.75" width="10.04" height="3.35" transform="translate(-291.8 149.33) rotate(-16.1)" fill="#8ad1f0"/><rect x="390.63" y="1114.22" width="6.79" height="3.35" transform="translate(-123.06 51.43) rotate(-6.46)" fill="#8ad1f0"/><rect x="379.36" y="1094.9" width="7.57" height="3.35" transform="translate(-776.66 1160.69) rotate(-73.9)" fill="#8ad1f0"/><rect x="383.3" y="1098.54" width="10.04" height="3.35" transform="translate(-776.42 1168.29) rotate(-73.9)" fill="#8ad1f0"/><rect x="394.39" y="1110.46" width="6.79" height="3.35" transform="matrix(0.11, -0.99, 0.99, 0.11, -752.05, 1382.26)" fill="#8ad1f0"/><rect x="430.27" y="1155.17" width="7.57" height="3.35" transform="translate(-797.78 1253.17) rotate(-73.9)" fill="#8ad1f0"/><rect x="423.86" y="1151.53" width="10.04" height="3.35" transform="translate(-798.02 1245.56) rotate(-73.9)" fill="#8ad1f0"/><rect x="416.01" y="1139.6" width="6.79" height="3.35" transform="matrix(0.11, -0.99, 0.99, 0.11, -761.81, 1429.61)" fill="#8ad1f0"/><rect x="434.95" y="1150.49" width="7.57" height="3.35" transform="translate(-302.28 166.84) rotate(-16.1)" fill="#8ad1f0"/><rect x="430.08" y="1145.31" width="10.04" height="3.35" transform="translate(-300.98 165.62) rotate(-16.1)" fill="#8ad1f0"/><rect x="419.77" y="1135.84" width="6.79" height="3.35" transform="translate(-125.33 54.85) rotate(-6.46)" fill="#8ad1f0"/><rect x="363.57" y="1124.7" width="90.49" height="3.35" transform="translate(-784.99 1229.71) rotate(-75)" fill="#8ad1f0"/><rect x="414.03" y="1084.06" width="3.35" height="7.57" transform="translate(-656.38 633.03) rotate(-46.1)" fill="#8ad1f0"/><rect x="411.37" y="1088.57" width="3.35" height="10.04" transform="translate(-661.32 632.86) rotate(-46.1)" fill="#8ad1f0"/><rect x="409.14" y="1105.25" width="3.35" height="6.79" transform="translate(-578.46 461.18) rotate(-36.46)" fill="#8ad1f0"/><rect x="418.32" y="1087.89" width="7.57" height="3.35" transform="translate(-249.44 133.35) rotate(-13.9)" fill="#8ad1f0"/><rect x="416.52" y="1094.19" width="10.04" height="3.35" transform="translate(-250.96 133.39) rotate(-13.9)" fill="#8ad1f0"/><rect x="412.55" y="1108.35" width="6.79" height="3.35" transform="translate(-408.7 258.48) rotate(-23.54)" fill="#8ad1f0"/><rect x="391.58" y="1162.11" width="7.57" height="3.35" transform="translate(-268.05 129.09) rotate(-13.9)" fill="#8ad1f0"/><rect x="390.91" y="1155.81" width="10.04" height="3.35" transform="translate(-266.51 129.03) rotate(-13.9)" fill="#8ad1f0"/><rect x="398.13" y="1141.64" width="6.79" height="3.35" transform="translate(-423.19 255.49) rotate(-23.54)" fill="#8ad1f0"/><rect x="400.08" y="1161.72" width="3.35" height="7.57" transform="translate(-716.61 646.79) rotate(-46.1)" fill="#8ad1f0"/><rect x="402.74" y="1154.74" width="3.35" height="10.04" transform="translate(-711.65 646.94) rotate(-46.1)" fill="#8ad1f0"/><rect x="404.98" y="1141.3" width="3.35" height="6.79" transform="translate(-600.69 465.77) rotate(-36.46)" fill="#8ad1f0"/><rect x="363.89" y="1125.01" width="90.49" height="3.35" transform="translate(-277.67 144.28) rotate(-15)" fill="#8ad1f0"/><rect x="442.16" y="1111.72" width="7.57" height="3.35" transform="translate(-741.98 1278.81) rotate(-76.1)" fill="#8ad1f0"/><rect x="434.62" y="1112.29" width="10.04" height="3.35" transform="translate(-747.32 1273.13) rotate(-76.1)" fill="#8ad1f0"/><rect x="422.08" y="1117.88" width="6.79" height="3.35" transform="translate(-770.85 1062.52) rotate(-66.46)" fill="#8ad1f0"/><rect x="445.98" y="1116.01" width="3.35" height="7.57" transform="translate(-651.41 623.42) rotate(-43.9)" fill="#8ad1f0"/><rect x="440.24" y="1117.44" width="3.35" height="10.04" transform="translate(-654.86 620.18) rotate(-43.9)" fill="#8ad1f0"/><rect x="425.18" y="1121.3" width="3.35" height="6.79" transform="translate(-731.36 799.62) rotate(-53.54)" fill="#8ad1f0"/><rect x="368.33" y="1129.96" width="3.35" height="7.57" transform="translate(-682.79 573.47) rotate(-43.9)" fill="#8ad1f0"/><rect x="374.07" y="1126.07" width="3.35" height="10.04" transform="translate(-679.34 576.7) rotate(-43.9)" fill="#8ad1f0"/><rect x="389.13" y="1125.45" width="3.35" height="6.79" transform="translate(-749.33 772.32) rotate(-53.54)" fill="#8ad1f0"/><rect x="367.94" y="1138.47" width="7.57" height="3.35" transform="translate(-824.33 1227.09) rotate(-76.1)" fill="#8ad1f0"/><rect x="373" y="1137.9" width="10.04" height="3.35" transform="translate(-819 1232.77) rotate(-76.1)" fill="#8ad1f0"/><rect x="388.79" y="1132.31" width="6.79" height="3.35" transform="translate(-804.07 1040.66) rotate(-66.46)" fill="#8ad1f0"/><rect x="1663.19" y="1083.47" width="3.35" height="90.49" transform="translate(-310.49 1507.83) rotate(-45)" fill="#8ad1f0"/><rect x="1631.16" y="1101.81" width="7.57" height="3.35" transform="translate(-241.86 496.58) rotate(-16.1)" fill="#8ad1f0"/><rect x="1633.57" y="1106.98" width="10.04" height="3.35" transform="translate(-243.15 497.81) rotate(-16.1)" fill="#8ad1f0"/><rect x="1647.12" y="1116.45" width="6.79" height="3.35" transform="translate(-115.33 192.83) rotate(-6.46)" fill="#8ad1f0"/><rect x="1635.85" y="1097.12" width="7.57" height="3.35" transform="translate(129.34 2369.53) rotate(-73.9)" fill="#8ad1f0"/><rect x="1639.78" y="1100.76" width="10.04" height="3.35" transform="translate(129.58 2377.14) rotate(-73.9)" fill="#8ad1f0"/><rect x="1650.88" y="1112.69" width="6.79" height="3.35" transform="matrix(0.11, -0.99, 0.99, 0.11, 360.84, 2632.74)" fill="#8ad1f0"/><rect x="1686.75" y="1157.4" width="7.57" height="3.35" transform="translate(108.22 2462.01) rotate(-73.9)" fill="#8ad1f0"/><rect x="1680.34" y="1153.76" width="10.04" height="3.35" transform="translate(107.98 2454.41) rotate(-73.9)" fill="#8ad1f0"/><rect x="1672.5" y="1141.83" width="6.79" height="3.35" transform="matrix(0.11, -0.99, 0.99, 0.11, 351.08, 2680.09)" fill="#8ad1f0"/><rect x="1691.44" y="1152.71" width="7.57" height="3.35" transform="translate(-253.63 515.34) rotate(-16.1)" fill="#8ad1f0"/><rect x="1686.56" y="1147.54" width="10.04" height="3.35" transform="translate(-252.33 514.11) rotate(-16.1)" fill="#8ad1f0"/><rect x="1676.26" y="1138.07" width="6.79" height="3.35" transform="translate(-117.6 196.27) rotate(-6.46)" fill="#8ad1f0"/><rect x="1620.05" y="1126.92" width="90.49" height="3.35" transform="translate(144.12 2445.03) rotate(-75)" fill="#8ad1f0"/><rect x="1670.52" y="1086.29" width="3.35" height="7.57" transform="translate(-272.78 1539.05) rotate(-46.1)" fill="#8ad1f0"/><rect x="1667.86" y="1090.79" width="3.35" height="10.04" transform="translate(-277.74 1538.85) rotate(-46.1)" fill="#8ad1f0"/><rect x="1665.62" y="1107.48" width="3.35" height="6.79" transform="translate(-333.81 1208.36) rotate(-36.46)" fill="#8ad1f0"/><rect x="1674.81" y="1090.11" width="7.57" height="3.35" transform="translate(-213.16 435.32) rotate(-13.9)" fill="#8ad1f0"/><rect x="1673" y="1096.41" width="10.04" height="3.35" transform="translate(-214.69 435.35) rotate(-13.9)" fill="#8ad1f0"/><rect x="1669.03" y="1110.58" width="6.79" height="3.35" transform="translate(-305.04 760.46) rotate(-23.54)" fill="#8ad1f0"/><rect x="1648.06" y="1164.34" width="7.57" height="3.35" transform="translate(-231.78 431.07) rotate(-13.9)" fill="#8ad1f0"/><rect x="1647.39" y="1158.03" width="10.04" height="3.35" transform="translate(-230.23 430.99) rotate(-13.9)" fill="#8ad1f0"/><rect x="1654.61" y="1143.87" width="6.79" height="3.35" transform="translate(-319.53 757.47) rotate(-23.54)" fill="#8ad1f0"/><rect x="1656.57" y="1163.94" width="3.35" height="7.57" transform="translate(-333.01 1552.8) rotate(-46.1)" fill="#8ad1f0"/><rect x="1659.23" y="1156.96" width="3.35" height="10.04" transform="translate(-328.05 1552.96) rotate(-46.1)" fill="#8ad1f0"/><rect x="1661.46" y="1143.52" width="3.35" height="6.79" transform="translate(-356.04 1212.94) rotate(-36.46)" fill="#8ad1f0"/><rect x="1620.37" y="1127.24" width="90.49" height="3.35" transform="translate(-235.43 469.56) rotate(-15)" fill="#8ad1f0"/><rect x="1698.64" y="1113.95" width="7.57" height="3.35" transform="translate(210.51 2500.2) rotate(-76.1)" fill="#8ad1f0"/><rect x="1691.1" y="1114.52" width="10.04" height="3.35" transform="translate(205.17 2494.51) rotate(-76.1)" fill="#8ad1f0"/><rect x="1678.56" y="1120.11" width="6.79" height="3.35" transform="translate(-18.2 2215.78) rotate(-66.46)" fill="#8ad1f0"/><rect x="1702.47" y="1118.24" width="3.35" height="7.57" transform="translate(-301.76 1495.36) rotate(-43.9)" fill="#8ad1f0"/><rect x="1696.73" y="1119.66" width="3.35" height="10.04" transform="translate(-305.21 1492.12) rotate(-43.9)" fill="#8ad1f0"/><rect x="1681.66" y="1123.52" width="3.35" height="6.79" transform="translate(-223.37 1811.07) rotate(-53.54)" fill="#8ad1f0"/><rect x="1624.81" y="1132.19" width="3.35" height="7.57" transform="translate(-333.14 1445.41) rotate(-43.9)" fill="#8ad1f0"/><rect x="1630.55" y="1128.29" width="3.35" height="10.04" transform="translate(-329.69 1448.64) rotate(-43.9)" fill="#8ad1f0"/><rect x="1645.62" y="1127.68" width="3.35" height="6.79" transform="translate(-241.33 1783.77) rotate(-53.54)" fill="#8ad1f0"/><rect x="1624.42" y="1140.7" width="7.57" height="3.35" transform="translate(128.15 2448.47) rotate(-76.1)" fill="#8ad1f0"/><rect x="1629.48" y="1140.13" width="10.04" height="3.35" transform="translate(133.49 2454.15) rotate(-76.1)" fill="#8ad1f0"/><rect x="1645.27" y="1134.53" width="6.79" height="3.35" transform="translate(-51.42 2193.92) rotate(-66.46)" fill="#8ad1f0"/><rect x="1205.29" y="1170.05" width="3.35" height="90.49" transform="translate(-505.83 1209.41) rotate(-45)" fill="#8ad1f0"/><rect x="1173.26" y="1188.39" width="7.57" height="3.35" transform="translate(-283.81 373.01) rotate(-16.1)" fill="#8ad1f0"/><rect x="1175.67" y="1193.56" width="10.04" height="3.35" transform="translate(-285.11 374.24) rotate(-16.1)" fill="#8ad1f0"/><rect x="1189.22" y="1203.03" width="6.79" height="3.35" transform="translate(-127.98 141.85) rotate(-6.46)" fill="#8ad1f0"/><rect x="1177.95" y="1183.7" width="7.57" height="3.35" transform="translate(-284.8 1992.16) rotate(-73.9)" fill="#8ad1f0"/><rect x="1181.89" y="1187.34" width="10.04" height="3.35" transform="translate(-284.56 1999.76) rotate(-73.9)" fill="#8ad1f0"/><rect x="1192.98" y="1199.27" width="6.79" height="3.35" transform="matrix(0.11, -0.99, 0.99, 0.11, -131.56, 2254.59)" fill="#8ad1f0"/><rect x="1228.85" y="1243.98" width="7.57" height="3.35" transform="translate(-305.92 2084.64) rotate(-73.9)" fill="#8ad1f0"/><rect x="1222.45" y="1240.34" width="10.04" height="3.35" transform="translate(-306.16 2077.03) rotate(-73.9)" fill="#8ad1f0"/><rect x="1214.6" y="1228.41" width="6.79" height="3.35" transform="matrix(0.11, -0.99, 0.99, 0.11, -141.33, 2301.93)" fill="#8ad1f0"/><rect x="1233.54" y="1239.29" width="7.57" height="3.35" transform="translate(-295.59 391.77) rotate(-16.1)" fill="#8ad1f0"/><rect x="1228.66" y="1234.12" width="10.04" height="3.35" transform="translate(-294.29 390.53) rotate(-16.1)" fill="#8ad1f0"/><rect x="1218.36" y="1224.65" width="6.79" height="3.35" transform="translate(-130.25 145.29) rotate(-6.46)" fill="#8ad1f0"/><rect x="1162.16" y="1213.5" width="90.49" height="3.35" transform="translate(-278.88 2066.9) rotate(-75)" fill="#8ad1f0"/><rect x="1212.62" y="1172.87" width="3.35" height="7.57" transform="translate(-475.54 1235.66) rotate(-46.1)" fill="#8ad1f0"/><rect x="1209.96" y="1177.37" width="3.35" height="10.04" transform="translate(-480.49 1235.47) rotate(-46.1)" fill="#8ad1f0"/><rect x="1207.72" y="1194.06" width="3.35" height="6.79" transform="translate(-474.9 953.17) rotate(-36.46)" fill="#8ad1f0"/><rect x="1216.91" y="1176.69" width="7.57" height="3.35" transform="translate(-247.38 327.83) rotate(-13.9)" fill="#8ad1f0"/><rect x="1215.1" y="1182.99" width="10.04" height="3.35" transform="translate(-248.9 327.87) rotate(-13.9)" fill="#8ad1f0"/><rect x="1211.13" y="1197.16" width="6.79" height="3.35" transform="translate(-377.71 584.79) rotate(-23.54)" fill="#8ad1f0"/><rect x="1190.16" y="1250.92" width="7.57" height="3.35" transform="translate(-266 323.58) rotate(-13.9)" fill="#8ad1f0"/><rect x="1189.49" y="1244.61" width="10.04" height="3.35" transform="translate(-264.45 323.51) rotate(-13.9)" fill="#8ad1f0"/><rect x="1196.71" y="1230.45" width="6.79" height="3.35" transform="translate(-392.21 581.8) rotate(-23.54)" fill="#8ad1f0"/><rect x="1198.67" y="1250.52" width="3.35" height="7.57" transform="translate(-535.77 1249.42) rotate(-46.1)" fill="#8ad1f0"/><rect x="1201.33" y="1243.54" width="3.35" height="10.04" transform="translate(-530.82 1249.57) rotate(-46.1)" fill="#8ad1f0"/><rect x="1203.57" y="1230.1" width="3.35" height="6.79" transform="translate(-497.14 957.76) rotate(-36.46)" fill="#8ad1f0"/><rect x="1162.47" y="1213.82" width="90.49" height="3.35" transform="translate(-273.44 354) rotate(-15)" fill="#8ad1f0"/><rect x="1240.74" y="1200.53" width="7.57" height="3.35" transform="translate(-221.44 2121.49) rotate(-76.1)" fill="#8ad1f0"/><rect x="1233.21" y="1201.1" width="10.04" height="3.35" transform="translate(-226.78 2115.8) rotate(-76.1)" fill="#8ad1f0"/><rect x="1220.67" y="1206.69" width="6.79" height="3.35" transform="translate(-372.61 1847.99) rotate(-66.46)" fill="#8ad1f0"/><rect x="1244.57" y="1204.82" width="3.35" height="7.57" transform="translate(-489.79 1202.02) rotate(-43.9)" fill="#8ad1f0"/><rect x="1238.83" y="1206.24" width="3.35" height="10.04" transform="translate(-493.24 1198.79) rotate(-43.9)" fill="#8ad1f0"/><rect x="1223.76" y="1210.1" width="3.35" height="6.79" transform="translate(-478.78 1477.92) rotate(-53.54)" fill="#8ad1f0"/><rect x="1166.91" y="1218.77" width="3.35" height="7.57" transform="translate(-521.16 1152.07) rotate(-43.9)" fill="#8ad1f0"/><rect x="1172.66" y="1214.87" width="3.35" height="10.04" transform="translate(-517.71 1155.31) rotate(-43.9)" fill="#8ad1f0"/><rect x="1187.72" y="1214.26" width="3.35" height="6.79" transform="translate(-496.75 1450.63) rotate(-53.54)" fill="#8ad1f0"/><rect x="1166.52" y="1227.28" width="7.57" height="3.35" transform="translate(-303.8 2069.76) rotate(-76.1)" fill="#8ad1f0"/><rect x="1171.59" y="1226.71" width="10.04" height="3.35" transform="translate(-298.46 2075.45) rotate(-76.1)" fill="#8ad1f0"/><rect x="1187.37" y="1221.11" width="6.79" height="3.35" transform="translate(-405.83 1826.13) rotate(-66.46)" fill="#8ad1f0"/><rect x="861.72" y="1282.17" width="3.35" height="90.49" transform="translate(-685.74 999.3) rotate(-45)" fill="#8ad1f0"/><rect x="829.69" y="1300.51" width="7.57" height="3.35" transform="translate(-328.37 282.15) rotate(-16.1)" fill="#8ad1f0"/><rect x="832.1" y="1305.68" width="10.04" height="3.35" transform="translate(-329.67 283.37) rotate(-16.1)" fill="#8ad1f0"/><rect x="845.65" y="1315.15" width="6.79" height="3.35" transform="translate(-142.78 103.9) rotate(-6.46)" fill="#8ad1f0"/><rect x="834.38" y="1295.82" width="7.57" height="3.35" transform="translate(-640.85 1743.1) rotate(-73.9)" fill="#8ad1f0"/><rect x="838.32" y="1299.47" width="10.04" height="3.35" transform="translate(-640.61 1750.7) rotate(-73.9)" fill="#8ad1f0"/><rect x="849.41" y="1311.39" width="6.79" height="3.35" transform="matrix(0.11, -0.99, 0.99, 0.11, -547.88, 2012.71)" fill="#8ad1f0"/><rect x="885.28" y="1356.1" width="7.57" height="3.35" transform="translate(-661.97 1835.57) rotate(-73.9)" fill="#8ad1f0"/><rect x="878.87" y="1352.46" width="10.04" height="3.35" transform="translate(-662.21 1827.97) rotate(-73.9)" fill="#8ad1f0"/><rect x="871.03" y="1340.53" width="6.79" height="3.35" transform="matrix(0.11, -0.99, 0.99, 0.11, -557.65, 2060.05)" fill="#8ad1f0"/><rect x="889.97" y="1351.41" width="7.57" height="3.35" transform="translate(-340.16 300.89) rotate(-16.1)" fill="#8ad1f0"/><rect x="885.09" y="1346.24" width="10.04" height="3.35" transform="translate(-338.85 299.67) rotate(-16.1)" fill="#8ad1f0"/><rect x="874.79" y="1336.77" width="6.79" height="3.35" transform="translate(-145.05 107.33) rotate(-6.46)" fill="#8ad1f0"/><rect x="818.58" y="1325.63" width="90.49" height="3.35" transform="translate(-641.83 1818.14) rotate(-75)" fill="#8ad1f0"/><rect x="869.05" y="1284.99" width="3.35" height="7.57" transform="translate(-661.66 1022.48) rotate(-46.1)" fill="#8ad1f0"/><rect x="866.39" y="1289.49" width="3.35" height="10.04" transform="translate(-666.6 1022.3) rotate(-46.1)" fill="#8ad1f0"/><rect x="864.15" y="1306.18" width="3.35" height="6.79" transform="translate(-608.8 770.94) rotate(-36.46)" fill="#8ad1f0"/><rect x="873.34" y="1288.81" width="7.57" height="3.35" transform="translate(-284.38 248.56) rotate(-13.9)" fill="#8ad1f0"/><rect x="871.53" y="1295.12" width="10.04" height="3.35" transform="translate(-285.91 248.6) rotate(-13.9)" fill="#8ad1f0"/><rect x="867.56" y="1309.28" width="6.79" height="3.35" transform="translate(-451.08 456.91) rotate(-23.54)" fill="#8ad1f0"/><rect x="846.59" y="1363.04" width="7.57" height="3.35" transform="translate(-303 244.31) rotate(-13.9)" fill="#8ad1f0"/><rect x="845.92" y="1356.74" width="10.04" height="3.35" transform="translate(-301.45 244.24) rotate(-13.9)" fill="#8ad1f0"/><rect x="853.14" y="1342.57" width="6.79" height="3.35" transform="translate(-465.57 453.92) rotate(-23.54)" fill="#8ad1f0"/><rect x="855.1" y="1362.64" width="3.35" height="7.57" transform="translate(-721.88 1036.24) rotate(-46.1)" fill="#8ad1f0"/><rect x="857.76" y="1355.67" width="3.35" height="10.04" transform="translate(-716.93 1036.39) rotate(-46.1)" fill="#8ad1f0"/><rect x="860" y="1342.23" width="3.35" height="6.79" transform="translate(-631.03 775.52) rotate(-36.46)" fill="#8ad1f0"/><rect x="818.9" y="1325.94" width="90.49" height="3.35" transform="translate(-314.17 268.9) rotate(-15)" fill="#8ad1f0"/><rect x="897.17" y="1312.65" width="7.57" height="3.35" transform="translate(-591.31 1873.17) rotate(-76.1)" fill="#8ad1f0"/><rect x="889.64" y="1313.22" width="10.04" height="3.35" transform="translate(-596.65 1867.48) rotate(-76.1)" fill="#8ad1f0"/><rect x="877.1" y="1318.81" width="6.79" height="3.35" transform="translate(-681.76 1600.35) rotate(-66.46)" fill="#8ad1f0"/><rect x="901" y="1316.94" width="3.35" height="7.57" transform="translate(-663.57 995.11) rotate(-43.9)" fill="#8ad1f0"/><rect x="895.26" y="1318.36" width="3.35" height="10.04" transform="translate(-667.02 991.87) rotate(-43.9)" fill="#8ad1f0"/><rect x="880.19" y="1322.22" width="3.35" height="6.79" transform="translate(-708.35 1247.09) rotate(-53.54)" fill="#8ad1f0"/><rect x="823.34" y="1330.89" width="3.35" height="7.57" transform="translate(-694.94 945.16) rotate(-43.9)" fill="#8ad1f0"/><rect x="829.09" y="1326.99" width="3.35" height="10.04" transform="translate(-691.5 948.4) rotate(-43.9)" fill="#8ad1f0"/><rect x="844.15" y="1326.38" width="3.35" height="6.79" transform="translate(-726.32 1219.8) rotate(-53.54)" fill="#8ad1f0"/><rect x="822.95" y="1339.4" width="7.57" height="3.35" transform="translate(-673.67 1821.44) rotate(-76.1)" fill="#8ad1f0"/><rect x="828.02" y="1338.83" width="10.04" height="3.35" transform="translate(-668.33 1827.12) rotate(-76.1)" fill="#8ad1f0"/><rect x="843.8" y="1333.23" width="6.79" height="3.35" transform="translate(-714.98 1578.49) rotate(-66.46)" fill="#8ad1f0"/><rect x="724.19" y="1111.15" width="3.35" height="90.49" transform="translate(-605.09 851.97) rotate(-45)" fill="#8ad1f0"/><rect x="692.17" y="1129.48" width="7.57" height="3.35" transform="translate(-286.34 237.31) rotate(-16.1)" fill="#8ad1f0"/><rect x="694.57" y="1134.66" width="10.04" height="3.35" transform="translate(-287.65 238.53) rotate(-16.1)" fill="#8ad1f0"/><rect x="708.12" y="1144.13" width="6.79" height="3.35" transform="translate(-124.41 87.34) rotate(-6.46)" fill="#8ad1f0"/><rect x="696.85" y="1124.8" width="7.57" height="3.35" transform="translate(-575.93 1487.35) rotate(-73.9)" fill="#8ad1f0"/><rect x="700.79" y="1128.44" width="10.04" height="3.35" transform="translate(-575.69 1494.95) rotate(-73.9)" fill="#8ad1f0"/><rect x="711.88" y="1140.37" width="6.79" height="3.35" transform="matrix(0.11, -0.99, 0.99, 0.11, -500, 1724.27)" fill="#8ad1f0"/><rect x="747.76" y="1185.08" width="7.57" height="3.35" transform="translate(-597.05 1579.82) rotate(-73.9)" fill="#8ad1f0"/><rect x="741.35" y="1181.43" width="10.04" height="3.35" transform="translate(-597.29 1572.22) rotate(-73.9)" fill="#8ad1f0"/><rect x="733.5" y="1169.51" width="6.79" height="3.35" transform="matrix(0.11, -0.99, 0.99, 0.11, -509.76, 1771.62)" fill="#8ad1f0"/><rect x="752.44" y="1180.39" width="7.57" height="3.35" transform="translate(-298.12 256.05) rotate(-16.1)" fill="#8ad1f0"/><rect x="747.56" y="1175.22" width="10.04" height="3.35" transform="translate(-296.82 254.83) rotate(-16.1)" fill="#8ad1f0"/><rect x="737.26" y="1165.75" width="6.79" height="3.35" transform="translate(-126.68 90.77) rotate(-6.46)" fill="#8ad1f0"/><rect x="681.06" y="1154.6" width="90.49" height="3.35" transform="translate(-578.56 1558.54) rotate(-75)" fill="#8ad1f0"/><rect x="731.52" y="1113.97" width="3.35" height="7.57" transform="translate(-580.59 870.96) rotate(-46.1)" fill="#8ad1f0"/><rect x="728.86" y="1118.47" width="3.35" height="10.04" transform="translate(-585.54 870.78) rotate(-46.1)" fill="#8ad1f0"/><rect x="726.62" y="1135.16" width="3.35" height="6.79" transform="translate(-534.08 655.72) rotate(-36.46)" fill="#8ad1f0"/><rect x="735.81" y="1117.79" width="7.57" height="3.35" transform="translate(-247.32 210.51) rotate(-13.9)" fill="#8ad1f0"/><rect x="734.01" y="1124.09" width="10.04" height="3.35" transform="translate(-248.84 210.55) rotate(-13.9)" fill="#8ad1f0"/><rect x="730.04" y="1138.25" width="6.79" height="3.35" transform="translate(-394.22 387.76) rotate(-23.54)" fill="#8ad1f0"/><rect x="709.06" y="1192.01" width="7.57" height="3.35" transform="translate(-265.94 206.26) rotate(-13.9)" fill="#8ad1f0"/><rect x="708.39" y="1185.71" width="10.04" height="3.35" transform="translate(-264.39 206.19) rotate(-13.9)" fill="#8ad1f0"/><rect x="715.61" y="1171.55" width="6.79" height="3.35" transform="translate(-408.72 384.77) rotate(-23.54)" fill="#8ad1f0"/><rect x="717.57" y="1191.62" width="3.35" height="7.57" transform="translate(-640.82 884.72) rotate(-46.1)" fill="#8ad1f0"/><rect x="720.23" y="1184.64" width="3.35" height="10.04" transform="translate(-635.87 884.87) rotate(-46.1)" fill="#8ad1f0"/><rect x="722.47" y="1171.2" width="3.35" height="6.79" transform="translate(-556.31 660.31) rotate(-36.46)" fill="#8ad1f0"/><rect x="681.37" y="1154.92" width="90.49" height="3.35" transform="translate(-274.59 227.47) rotate(-15)" fill="#8ad1f0"/><rect x="759.65" y="1141.62" width="7.57" height="3.35" transform="translate(-529.79 1609.72) rotate(-76.1)" fill="#8ad1f0"/><rect x="752.11" y="1142.19" width="10.04" height="3.35" transform="translate(-535.13 1604.04) rotate(-76.1)" fill="#8ad1f0"/><rect x="739.57" y="1147.79" width="6.79" height="3.35" transform="translate(-607.57 1371.55) rotate(-66.46)" fill="#8ad1f0"/><rect x="763.47" y="1145.92" width="3.35" height="7.57" transform="translate(-583.41 851.94) rotate(-43.9)" fill="#8ad1f0"/><rect x="757.73" y="1147.34" width="3.35" height="10.04" transform="translate(-586.86 848.7) rotate(-43.9)" fill="#8ad1f0"/><rect x="742.67" y="1151.2" width="3.35" height="6.79" transform="translate(-626.6 1067.1) rotate(-53.54)" fill="#8ad1f0"/><rect x="685.82" y="1159.86" width="3.35" height="7.57" transform="translate(-614.78 801.99) rotate(-43.9)" fill="#8ad1f0"/><rect x="691.56" y="1155.97" width="3.35" height="10.04" transform="translate(-611.34 805.23) rotate(-43.9)" fill="#8ad1f0"/><rect x="706.62" y="1155.36" width="3.35" height="6.79" transform="translate(-644.57 1039.8) rotate(-53.54)" fill="#8ad1f0"/><rect x="685.42" y="1168.37" width="7.57" height="3.35" transform="translate(-612.14 1558) rotate(-76.1)" fill="#8ad1f0"/><rect x="690.49" y="1167.8" width="10.04" height="3.35" transform="translate(-606.81 1563.68) rotate(-76.1)" fill="#8ad1f0"/><rect x="706.27" y="1162.21" width="6.79" height="3.35" transform="translate(-640.79 1349.69) rotate(-66.46)" fill="#8ad1f0"/><rect x="556.8" y="1360.28" width="3.35" height="90.49" transform="translate(-830.28 806.57) rotate(-45)" fill="#8ad1f0"/><rect x="524.77" y="1378.61" width="7.57" height="3.35" transform="translate(-361.98 200.67) rotate(-16.1)" fill="#8ad1f0"/><rect x="527.18" y="1383.79" width="10.04" height="3.35" transform="translate(-363.29 201.89) rotate(-16.1)" fill="#8ad1f0"/><rect x="540.73" y="1393.25" width="6.79" height="3.35" transform="translate(-153.51 70.09) rotate(-6.46)" fill="#8ad1f0"/><rect x="529.46" y="1373.93" width="7.57" height="3.35" transform="translate(-936.27 1506.58) rotate(-73.9)" fill="#8ad1f0"/><rect x="533.39" y="1377.57" width="10.04" height="3.35" transform="translate(-936.04 1514.18) rotate(-73.9)" fill="#8ad1f0"/><rect x="544.49" y="1389.5" width="6.79" height="3.35" transform="matrix(0.11, -0.99, 0.99, 0.11, -896.1, 1779.04)" fill="#8ad1f0"/><rect x="580.36" y="1434.2" width="7.57" height="3.35" transform="translate(-957.4 1599.05) rotate(-73.9)" fill="#8ad1f0"/><rect x="573.95" y="1430.56" width="10.04" height="3.35" transform="translate(-957.63 1591.45) rotate(-73.9)" fill="#8ad1f0"/><rect x="566.11" y="1418.63" width="6.79" height="3.35" transform="matrix(0.11, -0.99, 0.99, 0.11, -905.87, 1826.38)" fill="#8ad1f0"/><rect x="585.05" y="1429.52" width="7.57" height="3.35" transform="translate(-373.77 219.4) rotate(-16.1)" fill="#8ad1f0"/><rect x="580.17" y="1424.34" width="10.04" height="3.35" transform="translate(-372.46 218.18) rotate(-16.1)" fill="#8ad1f0"/><rect x="569.87" y="1414.88" width="6.79" height="3.35" transform="translate(-155.78 73.51) rotate(-6.46)" fill="#8ad1f0"/><rect x="513.66" y="1403.73" width="90.49" height="3.35" transform="translate(-943.27 1581.5) rotate(-75)" fill="#8ad1f0"/><rect x="564.12" y="1363.09" width="3.35" height="7.57" transform="translate(-811.41 826.72) rotate(-46.1)" fill="#8ad1f0"/><rect x="561.47" y="1367.6" width="3.35" height="10.04" transform="translate(-816.36 826.54) rotate(-46.1)" fill="#8ad1f0"/><rect x="559.23" y="1384.29" width="3.35" height="6.79" transform="translate(-714.91 605.01) rotate(-36.46)" fill="#8ad1f0"/><rect x="568.42" y="1366.92" width="7.57" height="3.35" transform="translate(-312.08 177.59) rotate(-13.9)" fill="#8ad1f0"/><rect x="566.61" y="1373.22" width="10.04" height="3.35" transform="translate(-313.61 177.63) rotate(-13.9)" fill="#8ad1f0"/><rect x="562.64" y="1387.38" width="6.79" height="3.35" transform="translate(-507.64 341.64) rotate(-23.54)" fill="#8ad1f0"/><rect x="541.67" y="1441.14" width="7.57" height="3.35" transform="translate(-330.7 173.33) rotate(-13.9)" fill="#8ad1f0"/><rect x="541" y="1434.84" width="10.04" height="3.35" transform="translate(-329.15 173.27) rotate(-13.9)" fill="#8ad1f0"/><rect x="548.22" y="1420.68" width="6.79" height="3.35" transform="translate(-522.14 338.65) rotate(-23.54)" fill="#8ad1f0"/><rect x="550.18" y="1440.75" width="3.35" height="7.57" transform="translate(-871.64 840.48) rotate(-46.1)" fill="#8ad1f0"/><rect x="552.84" y="1433.77" width="3.35" height="10.04" transform="translate(-866.69 840.63) rotate(-46.1)" fill="#8ad1f0"/><rect x="555.07" y="1420.33" width="3.35" height="6.79" transform="translate(-737.14 609.59) rotate(-36.46)" fill="#8ad1f0"/><rect x="513.98" y="1404.05" width="90.49" height="3.35" transform="translate(-344.77 192.64) rotate(-15)" fill="#8ad1f0"/><rect x="592.25" y="1390.75" width="7.57" height="3.35" transform="translate(-898.8 1636.51) rotate(-76.1)" fill="#8ad1f0"/><rect x="584.71" y="1391.32" width="10.04" height="3.35" transform="translate(-904.14 1630.83) rotate(-76.1)" fill="#8ad1f0"/><rect x="572.17" y="1396.92" width="6.79" height="3.35" transform="translate(-936.51 1367.71) rotate(-66.46)" fill="#8ad1f0"/><rect x="596.08" y="1395.04" width="3.35" height="7.57" transform="translate(-802.96 805.49) rotate(-43.9)" fill="#8ad1f0"/><rect x="590.33" y="1396.47" width="3.35" height="10.04" transform="translate(-806.4 802.25) rotate(-43.9)" fill="#8ad1f0"/><rect x="575.27" y="1400.33" width="3.35" height="6.79" transform="translate(-894.88 1033.54) rotate(-53.54)" fill="#8ad1f0"/><rect x="518.42" y="1408.99" width="3.35" height="7.57" transform="translate(-834.33 755.54) rotate(-43.9)" fill="#8ad1f0"/><rect x="524.16" y="1405.1" width="3.35" height="10.04" transform="translate(-830.88 758.78) rotate(-43.9)" fill="#8ad1f0"/><rect x="539.23" y="1404.48" width="3.35" height="6.79" transform="translate(-912.85 1006.25) rotate(-53.54)" fill="#8ad1f0"/><rect x="518.03" y="1417.5" width="7.57" height="3.35" transform="translate(-981.16 1584.79) rotate(-76.1)" fill="#8ad1f0"/><rect x="523.09" y="1416.93" width="10.04" height="3.35" transform="translate(-975.82 1590.47) rotate(-76.1)" fill="#8ad1f0"/><rect x="538.88" y="1411.34" width="6.79" height="3.35" transform="translate(-969.73 1345.85) rotate(-66.46)" fill="#8ad1f0"/><rect x="1423.94" y="1262.23" width="3.35" height="90.49" transform="translate(-506.97 1391.01) rotate(-45)" fill="#8ad1f0"/><rect x="1391.91" y="1280.56" width="7.57" height="3.35" transform="translate(-300.8 437.25) rotate(-16.1)" fill="#8ad1f0"/><rect x="1394.32" y="1285.74" width="10.04" height="3.35" transform="translate(-302.1 438.48) rotate(-16.1)" fill="#8ad1f0"/><rect x="1407.87" y="1295.21" width="6.79" height="3.35" transform="translate(-136.97 167.04) rotate(-6.46)" fill="#8ad1f0"/><rect x="1396.6" y="1275.88" width="7.57" height="3.35" transform="translate(-215.33 2268.86) rotate(-73.9)" fill="#8ad1f0"/><rect x="1400.53" y="1279.52" width="10.04" height="3.35" transform="translate(-215.09 2276.46) rotate(-73.9)" fill="#8ad1f0"/><rect x="1411.63" y="1291.45" width="6.79" height="3.35" transform="matrix(0.11, -0.99, 0.99, 0.11, -29.11, 2553.66)" fill="#8ad1f0"/><rect x="1447.5" y="1336.16" width="7.57" height="3.35" transform="translate(-236.45 2361.34) rotate(-73.9)" fill="#8ad1f0"/><rect x="1441.09" y="1332.51" width="10.04" height="3.35" transform="translate(-236.69 2353.73) rotate(-73.9)" fill="#8ad1f0"/><rect x="1433.25" y="1320.59" width="6.79" height="3.35" transform="matrix(0.11, -0.99, 0.99, 0.11, -38.87, 2601)" fill="#8ad1f0"/><rect x="1452.19" y="1331.47" width="7.57" height="3.35" transform="translate(-312.58 456.01) rotate(-16.1)" fill="#8ad1f0"/><rect x="1447.31" y="1326.3" width="10.04" height="3.35" transform="translate(-311.28 454.78) rotate(-16.1)" fill="#8ad1f0"/><rect x="1437" y="1316.83" width="6.79" height="3.35" transform="translate(-139.23 170.48) rotate(-6.46)" fill="#8ad1f0"/><rect x="1380.8" y="1305.68" width="90.49" height="3.35" transform="translate(-205.87 2346.42) rotate(-75)" fill="#8ad1f0"/><rect x="1431.26" y="1265.05" width="3.35" height="7.57" transform="translate(-474.93 1421.46) rotate(-46.1)" fill="#8ad1f0"/><rect x="1428.61" y="1269.55" width="3.35" height="10.04" transform="translate(-479.88 1421.27) rotate(-46.1)" fill="#8ad1f0"/><rect x="1426.37" y="1286.24" width="3.35" height="6.79" transform="translate(-486.88 1101.16) rotate(-36.46)" fill="#8ad1f0"/><rect x="1435.56" y="1268.87" width="7.57" height="3.35" transform="translate(-263.12 383.07) rotate(-13.9)" fill="#8ad1f0"/><rect x="1433.75" y="1275.17" width="10.04" height="3.35" transform="translate(-264.64 383.11) rotate(-13.9)" fill="#8ad1f0"/><rect x="1429.78" y="1289.34" width="6.79" height="3.35" transform="translate(-396.33 679.78) rotate(-23.54)" fill="#8ad1f0"/><rect x="1408.81" y="1343.09" width="7.57" height="3.35" transform="translate(-281.74 378.82) rotate(-13.9)" fill="#8ad1f0"/><rect x="1408.14" y="1336.79" width="10.04" height="3.35" transform="translate(-280.19 378.74) rotate(-13.9)" fill="#8ad1f0"/><rect x="1415.36" y="1322.63" width="6.79" height="3.35" transform="translate(-410.83 676.79) rotate(-23.54)" fill="#8ad1f0"/><rect x="1417.32" y="1342.7" width="3.35" height="7.57" transform="translate(-535.15 1435.22) rotate(-46.1)" fill="#8ad1f0"/><rect x="1419.98" y="1335.72" width="3.35" height="10.04" transform="translate(-530.2 1435.37) rotate(-46.1)" fill="#8ad1f0"/><rect x="1422.21" y="1322.28" width="3.35" height="6.79" transform="translate(-509.12 1105.75) rotate(-36.46)" fill="#8ad1f0"/><rect x="1381.12" y="1306" width="90.49" height="3.35" transform="translate(-289.85 413.73) rotate(-15)" fill="#8ad1f0"/><rect x="1459.39" y="1292.71" width="7.57" height="3.35" transform="translate(-144.79 2403.77) rotate(-76.1)" fill="#8ad1f0"/><rect x="1451.85" y="1293.27" width="10.04" height="3.35" transform="translate(-150.13 2398.08) rotate(-76.1)" fill="#8ad1f0"/><rect x="1439.31" y="1298.87" width="6.79" height="3.35" transform="translate(-325.79 2103.81) rotate(-66.46)" fill="#8ad1f0"/><rect x="1463.22" y="1297" width="3.35" height="7.57" transform="translate(-492.6 1379.41) rotate(-43.9)" fill="#8ad1f0"/><rect x="1457.47" y="1298.42" width="3.35" height="10.04" transform="translate(-496.04 1376.17) rotate(-43.9)" fill="#8ad1f0"/><rect x="1442.41" y="1302.28" width="3.35" height="6.79" transform="translate(-464.2 1691.17) rotate(-53.54)" fill="#8ad1f0"/><rect x="1385.56" y="1310.94" width="3.35" height="7.57" transform="translate(-523.97 1329.46) rotate(-43.9)" fill="#8ad1f0"/><rect x="1391.3" y="1307.05" width="3.35" height="10.04" transform="translate(-520.52 1332.7) rotate(-43.9)" fill="#8ad1f0"/><rect x="1406.37" y="1306.44" width="3.35" height="6.79" transform="translate(-482.17 1663.88) rotate(-53.54)" fill="#8ad1f0"/><rect x="1385.17" y="1319.45" width="7.57" height="3.35" transform="translate(-227.15 2352.04) rotate(-76.1)" fill="#8ad1f0"/><rect x="1390.23" y="1318.89" width="10.04" height="3.35" transform="translate(-221.81 2357.72) rotate(-76.1)" fill="#8ad1f0"/><rect x="1406.02" y="1313.29" width="6.79" height="3.35" transform="translate(-359.01 2081.95) rotate(-66.46)" fill="#8ad1f0"/><rect x="1006.92" y="1096.15" width="3.35" height="90.49" transform="translate(-511.68 1047.49) rotate(-45)" fill="#8ad1f0"/><rect x="974.89" y="1114.49" width="7.57" height="3.35" transform="translate(-271.1 315.11) rotate(-16.1)" fill="#8ad1f0"/><rect x="977.3" y="1119.66" width="10.04" height="3.35" transform="translate(-272.4 316.34) rotate(-16.1)" fill="#8ad1f0"/><rect x="990.85" y="1129.13" width="6.79" height="3.35" transform="translate(-120.93 119.06) rotate(-6.46)" fill="#8ad1f0"/><rect x="979.58" y="1109.8" width="7.57" height="3.35" transform="translate(-357.17 1748.15) rotate(-73.9)" fill="#8ad1f0"/><rect x="983.51" y="1113.44" width="10.04" height="3.35" transform="translate(-356.93 1755.75) rotate(-73.9)" fill="#8ad1f0"/><rect x="994.6" y="1125.37" width="6.79" height="3.35" transform="matrix(0.11, -0.99, 0.99, 0.11, -234.18, 1991.89)" fill="#8ad1f0"/><rect x="1030.48" y="1170.08" width="7.57" height="3.35" transform="translate(-378.29 1840.62) rotate(-73.9)" fill="#8ad1f0"/><rect x="1024.07" y="1166.43" width="10.04" height="3.35" transform="translate(-378.53 1833.02) rotate(-73.9)" fill="#8ad1f0"/><rect x="1016.23" y="1154.51" width="6.79" height="3.35" transform="matrix(0.11, -0.99, 0.99, 0.11, -243.95, 2039.24)" fill="#8ad1f0"/><rect x="1035.17" y="1165.39" width="7.57" height="3.35" transform="translate(-282.88 333.86) rotate(-16.1)" fill="#8ad1f0"/><rect x="1030.29" y="1160.22" width="10.04" height="3.35" transform="translate(-281.58 332.63) rotate(-16.1)" fill="#8ad1f0"/><rect x="1019.98" y="1150.75" width="6.79" height="3.35" transform="translate(-123.19 122.49) rotate(-6.46)" fill="#8ad1f0"/><rect x="963.78" y="1139.6" width="90.49" height="3.35" transform="translate(-354.53 1820.52) rotate(-75)" fill="#8ad1f0"/><rect x="1014.24" y="1098.97" width="3.35" height="7.57" transform="translate(-483.11 1070.07) rotate(-46.1)" fill="#8ad1f0"/><rect x="1011.59" y="1103.47" width="3.35" height="10.04" transform="translate(-488.06 1069.89) rotate(-46.1)" fill="#8ad1f0"/><rect x="1009.35" y="1120.16" width="3.35" height="6.79" transform="translate(-469.82 820.81) rotate(-36.46)" fill="#8ad1f0"/><rect x="1018.54" y="1102.79" width="7.57" height="3.35" transform="translate(-235.43 278) rotate(-13.9)" fill="#8ad1f0"/><rect x="1016.73" y="1109.09" width="10.04" height="3.35" transform="translate(-236.96 278.04) rotate(-13.9)" fill="#8ad1f0"/><rect x="1012.76" y="1123.26" width="6.79" height="3.35" transform="translate(-364.71 499.42) rotate(-23.54)" fill="#8ad1f0"/><rect x="991.79" y="1177.01" width="7.57" height="3.35" transform="translate(-254.05 273.75) rotate(-13.9)" fill="#8ad1f0"/><rect x="991.12" y="1170.71" width="10.04" height="3.35" transform="translate(-252.51 273.68) rotate(-13.9)" fill="#8ad1f0"/><rect x="998.34" y="1156.55" width="6.79" height="3.35" transform="translate(-379.2 496.43) rotate(-23.54)" fill="#8ad1f0"/><rect x="1000.3" y="1176.62" width="3.35" height="7.57" transform="translate(-543.34 1083.83) rotate(-46.1)" fill="#8ad1f0"/><rect x="1002.96" y="1169.64" width="3.35" height="10.04" transform="translate(-538.38 1083.98) rotate(-46.1)" fill="#8ad1f0"/><rect x="1005.19" y="1156.2" width="3.35" height="6.79" transform="translate(-492.05 825.4) rotate(-36.46)" fill="#8ad1f0"/><rect x="964.1" y="1139.92" width="90.49" height="3.35" transform="translate(-261.07 300.14) rotate(-15)" fill="#8ad1f0"/><rect x="1042.37" y="1126.63" width="7.57" height="3.35" transform="translate(-300.42 1872.77) rotate(-76.1)" fill="#8ad1f0"/><rect x="1034.83" y="1127.19" width="10.04" height="3.35" transform="translate(-305.76 1867.09) rotate(-76.1)" fill="#8ad1f0"/><rect x="1022.29" y="1132.79" width="6.79" height="3.35" transform="translate(-424 1621.74) rotate(-66.46)" fill="#8ad1f0"/><rect x="1046.19" y="1130.92" width="3.35" height="7.57" transform="translate(-493.99 1043.81) rotate(-43.9)" fill="#8ad1f0"/><rect x="1040.45" y="1132.34" width="3.35" height="10.04" transform="translate(-497.43 1040.57) rotate(-43.9)" fill="#8ad1f0"/><rect x="1025.39" y="1136.2" width="3.35" height="6.79" transform="translate(-499.83 1288.4) rotate(-53.54)" fill="#8ad1f0"/><rect x="968.54" y="1144.86" width="3.35" height="7.57" transform="translate(-525.36 993.85) rotate(-43.9)" fill="#8ad1f0"/><rect x="974.28" y="1140.97" width="3.35" height="10.04" transform="translate(-521.91 997.09) rotate(-43.9)" fill="#8ad1f0"/><rect x="989.35" y="1140.36" width="3.35" height="6.79" transform="translate(-517.79 1261.1) rotate(-53.54)" fill="#8ad1f0"/><rect x="968.15" y="1153.37" width="7.57" height="3.35" transform="translate(-382.78 1821.05) rotate(-76.1)" fill="#8ad1f0"/><rect x="973.21" y="1152.81" width="10.04" height="3.35" transform="translate(-377.44 1826.73) rotate(-76.1)" fill="#8ad1f0"/><rect x="989" y="1147.21" width="6.79" height="3.35" transform="translate(-457.22 1599.88) rotate(-66.46)" fill="#8ad1f0"/><rect x="1115.31" y="1308.89" width="3.35" height="90.49" transform="translate(-630.36 1186.45) rotate(-45)" fill="#8ad1f0"/><rect x="1083.28" y="1327.23" width="7.57" height="3.35" transform="translate(-325.84 353.51) rotate(-16.1)" fill="#8ad1f0"/><rect x="1085.69" y="1332.4" width="10.04" height="3.35" transform="translate(-327.14 354.73) rotate(-16.1)" fill="#8ad1f0"/><rect x="1099.24" y="1341.87" width="6.79" height="3.35" transform="translate(-144.18 132.61) rotate(-6.46)" fill="#8ad1f0"/><rect x="1087.97" y="1322.55" width="7.57" height="3.35" transform="translate(-483.23 2006.06) rotate(-73.9)" fill="#8ad1f0"/><rect x="1091.91" y="1326.19" width="10.04" height="3.35" transform="translate(-482.99 2013.66) rotate(-73.9)" fill="#8ad1f0"/><rect x="1103" y="1338.11" width="6.79" height="3.35" transform="matrix(0.11, -0.99, 0.99, 0.11, -349.38, 2288.4)" fill="#8ad1f0"/><rect x="1138.87" y="1382.82" width="7.57" height="3.35" transform="translate(-504.35 2098.53) rotate(-73.9)" fill="#8ad1f0"/><rect x="1132.46" y="1379.18" width="10.04" height="3.35" transform="translate(-504.59 2090.93) rotate(-73.9)" fill="#8ad1f0"/><rect x="1124.62" y="1367.25" width="6.79" height="3.35" transform="matrix(0.11, -0.99, 0.99, 0.11, -359.14, 2335.75)" fill="#8ad1f0"/><rect x="1143.56" y="1378.14" width="7.57" height="3.35" transform="translate(-337.62 372.26) rotate(-16.1)" fill="#8ad1f0"/><rect x="1138.68" y="1372.96" width="10.04" height="3.35" transform="translate(-336.32 371.03) rotate(-16.1)" fill="#8ad1f0"/><rect x="1128.38" y="1363.49" width="6.79" height="3.35" transform="translate(-146.45 136.04) rotate(-6.46)" fill="#8ad1f0"/><rect x="1072.17" y="1352.35" width="90.49" height="3.35" transform="translate(-479.69 2082.9) rotate(-75)" fill="#8ad1f0"/><rect x="1122.64" y="1311.71" width="3.35" height="7.57" transform="translate(-603.17 1213.39) rotate(-46.1)" fill="#8ad1f0"/><rect x="1119.98" y="1316.22" width="3.35" height="10.04" transform="translate(-608.12 1213.21) rotate(-46.1)" fill="#8ad1f0"/><rect x="1117.74" y="1332.9" width="3.35" height="6.79" transform="translate(-575.04 926.88) rotate(-36.46)" fill="#8ad1f0"/><rect x="1126.93" y="1315.54" width="7.57" height="3.35" transform="translate(-283.38 310.28) rotate(-13.9)" fill="#8ad1f0"/><rect x="1125.12" y="1321.84" width="10.04" height="3.35" transform="translate(-284.9 310.32) rotate(-13.9)" fill="#8ad1f0"/><rect x="1121.15" y="1336" width="6.79" height="3.35" transform="translate(-440.65 560.41) rotate(-23.54)" fill="#8ad1f0"/><rect x="1100.18" y="1389.76" width="7.57" height="3.35" transform="translate(-301.99 306.03) rotate(-13.9)" fill="#8ad1f0"/><rect x="1099.51" y="1383.46" width="10.04" height="3.35" transform="translate(-300.45 305.96) rotate(-13.9)" fill="#8ad1f0"/><rect x="1106.73" y="1369.29" width="6.79" height="3.35" transform="translate(-455.15 557.42) rotate(-23.54)" fill="#8ad1f0"/><rect x="1108.69" y="1389.37" width="3.35" height="7.57" transform="translate(-663.39 1227.15) rotate(-46.1)" fill="#8ad1f0"/><rect x="1111.35" y="1382.39" width="3.35" height="10.04" transform="translate(-658.44 1227.3) rotate(-46.1)" fill="#8ad1f0"/><rect x="1113.59" y="1368.95" width="3.35" height="6.79" transform="translate(-597.27 931.47) rotate(-36.46)" fill="#8ad1f0"/><rect x="1072.49" y="1352.66" width="90.49" height="3.35" transform="translate(-312.44 335.44) rotate(-15)" fill="#8ad1f0"/><rect x="1150.76" y="1339.37" width="7.57" height="3.35" transform="translate(-424.58 2139.63) rotate(-76.1)" fill="#8ad1f0"/><rect x="1143.23" y="1339.94" width="10.04" height="3.35" transform="translate(-429.92 2133.95) rotate(-76.1)" fill="#8ad1f0"/><rect x="1130.69" y="1345.53" width="6.79" height="3.35" transform="translate(-553.94 1848.89) rotate(-66.46)" fill="#8ad1f0"/><rect x="1154.59" y="1343.66" width="3.35" height="7.57" transform="translate(-611.22 1178.43) rotate(-43.9)" fill="#8ad1f0"/><rect x="1148.85" y="1345.09" width="3.35" height="10.04" transform="translate(-614.67 1175.2) rotate(-43.9)" fill="#8ad1f0"/><rect x="1133.78" y="1348.95" width="3.35" height="6.79" transform="translate(-626.95 1461.89) rotate(-53.54)" fill="#8ad1f0"/><rect x="1076.93" y="1357.61" width="3.35" height="7.57" transform="translate(-642.59 1128.48) rotate(-43.9)" fill="#8ad1f0"/><rect x="1082.68" y="1353.71" width="3.35" height="10.04" transform="translate(-639.15 1131.72) rotate(-43.9)" fill="#8ad1f0"/><rect x="1097.74" y="1353.1" width="3.35" height="6.79" transform="translate(-644.92 1434.59) rotate(-53.54)" fill="#8ad1f0"/><rect x="1076.54" y="1366.12" width="7.57" height="3.35" transform="translate(-506.94 2087.9) rotate(-76.1)" fill="#8ad1f0"/><rect x="1081.61" y="1365.55" width="10.04" height="3.35" transform="translate(-501.6 2093.59) rotate(-76.1)" fill="#8ad1f0"/><rect x="1097.39" y="1359.96" width="6.79" height="3.35" transform="translate(-587.16 1827.03) rotate(-66.46)" fill="#8ad1f0"/><rect x="1396.36" y="1078.56" width="3.35" height="90.49" transform="translate(-385.17 1317.71) rotate(-45)" fill="#8ad1f0"/><rect x="1364.33" y="1096.89" width="7.57" height="3.35" transform="translate(-250.96 422.4) rotate(-16.1)" fill="#8ad1f0"/><rect x="1366.74" y="1102.07" width="10.04" height="3.35" transform="translate(-252.25 423.63) rotate(-16.1)" fill="#8ad1f0"/><rect x="1380.29" y="1111.54" width="6.79" height="3.35" transform="translate(-116.48 162.77) rotate(-6.46)" fill="#8ad1f0"/><rect x="1369.02" y="1092.21" width="7.57" height="3.35" transform="translate(-58.8 2109.61) rotate(-73.9)" fill="#8ad1f0"/><rect x="1372.95" y="1095.85" width="10.04" height="3.35" transform="translate(-58.56 2117.21) rotate(-73.9)" fill="#8ad1f0"/><rect x="1384.04" y="1107.78" width="6.79" height="3.35" transform="matrix(0.11, -0.99, 0.99, 0.11, 128.92, 2363.25)" fill="#8ad1f0"/><rect x="1419.92" y="1152.48" width="7.57" height="3.35" transform="translate(-79.92 2202.08) rotate(-73.9)" fill="#8ad1f0"/><rect x="1413.51" y="1148.84" width="10.04" height="3.35" transform="translate(-80.16 2194.48) rotate(-73.9)" fill="#8ad1f0"/><rect x="1405.67" y="1136.92" width="6.79" height="3.35" transform="matrix(0.11, -0.99, 0.99, 0.11, 119.15, 2410.59)" fill="#8ad1f0"/><rect x="1424.61" y="1147.8" width="7.57" height="3.35" transform="translate(-262.73 441.16) rotate(-16.1)" fill="#8ad1f0"/><rect x="1419.73" y="1142.63" width="10.04" height="3.35" transform="translate(-261.43 439.93) rotate(-16.1)" fill="#8ad1f0"/><rect x="1409.42" y="1133.16" width="6.79" height="3.35" transform="translate(-118.74 166.21) rotate(-6.46)" fill="#8ad1f0"/><rect x="1353.22" y="1122.01" width="90.49" height="3.35" transform="translate(-48.9 2183.65) rotate(-75)" fill="#8ad1f0"/><rect x="1403.68" y="1081.38" width="3.35" height="7.57" transform="translate(-351.04 1345.28) rotate(-46.1)" fill="#8ad1f0"/><rect x="1401.02" y="1085.88" width="3.35" height="10.04" transform="translate(-356 1345.09) rotate(-46.1)" fill="#8ad1f0"/><rect x="1398.79" y="1102.57" width="3.35" height="6.79" transform="translate(-383.13 1048.82) rotate(-36.46)" fill="#8ad1f0"/><rect x="1407.98" y="1085.2" width="7.57" height="3.35" transform="translate(-219.8 371.06) rotate(-13.9)" fill="#8ad1f0"/><rect x="1406.17" y="1091.5" width="10.04" height="3.35" transform="translate(-221.32 371.1) rotate(-13.9)" fill="#8ad1f0"/><rect x="1402.2" y="1105.66" width="6.79" height="3.35" transform="translate(-325.28 653.48) rotate(-23.54)" fill="#8ad1f0"/><rect x="1381.23" y="1159.42" width="7.57" height="3.35" transform="translate(-238.41 366.81) rotate(-13.9)" fill="#8ad1f0"/><rect x="1380.56" y="1153.12" width="10.04" height="3.35" transform="translate(-236.87 366.73) rotate(-13.9)" fill="#8ad1f0"/><rect x="1387.78" y="1138.96" width="6.79" height="3.35" transform="translate(-339.77 650.5) rotate(-23.54)" fill="#8ad1f0"/><rect x="1389.74" y="1159.03" width="3.35" height="7.57" transform="translate(-411.27 1359.04) rotate(-46.1)" fill="#8ad1f0"/><rect x="1392.4" y="1152.05" width="3.35" height="10.04" transform="translate(-406.32 1359.19) rotate(-46.1)" fill="#8ad1f0"/><rect x="1394.63" y="1138.61" width="3.35" height="6.79" transform="translate(-405.36 1053.4) rotate(-36.46)" fill="#8ad1f0"/><rect x="1353.54" y="1122.33" width="90.49" height="3.35" transform="translate(-243.25 400.33) rotate(-15)" fill="#8ad1f0"/><rect x="1431.81" y="1109.03" width="7.57" height="3.35" transform="translate(12.54 2237.44) rotate(-76.1)" fill="#8ad1f0"/><rect x="1424.27" y="1109.6" width="10.04" height="3.35" transform="translate(7.2 2231.76) rotate(-76.1)" fill="#8ad1f0"/><rect x="1411.73" y="1115.2" width="6.79" height="3.35" transform="translate(-173.97 1968.21) rotate(-66.46)" fill="#8ad1f0"/><rect x="1435.63" y="1113.33" width="3.35" height="7.57" transform="translate(-372.94 1308.95) rotate(-43.9)" fill="#8ad1f0"/><rect x="1429.89" y="1114.75" width="3.35" height="10.04" transform="translate(-376.39 1305.71) rotate(-43.9)" fill="#8ad1f0"/><rect x="1414.83" y="1118.61" width="3.35" height="6.79" transform="translate(-327.67 1594.47) rotate(-53.54)" fill="#8ad1f0"/><rect x="1357.98" y="1127.27" width="3.35" height="7.57" transform="translate(-404.31 1259) rotate(-43.9)" fill="#8ad1f0"/><rect x="1363.72" y="1123.38" width="3.35" height="10.04" transform="translate(-400.86 1262.23) rotate(-43.9)" fill="#8ad1f0"/><rect x="1378.79" y="1122.76" width="3.35" height="6.79" transform="translate(-345.64 1567.17) rotate(-53.54)" fill="#8ad1f0"/><rect x="1357.59" y="1135.78" width="7.57" height="3.35" transform="translate(-69.82 2185.72) rotate(-76.1)" fill="#8ad1f0"/><rect x="1362.65" y="1135.21" width="10.04" height="3.35" transform="translate(-64.48 2191.4) rotate(-76.1)" fill="#8ad1f0"/><rect x="1378.44" y="1129.62" width="6.79" height="3.35" transform="translate(-207.19 1946.35) rotate(-66.46)" fill="#8ad1f0"/><rect x="1568.7" y="1332.92" width="3.35" height="90.49" transform="translate(-514.56 1514.08) rotate(-45)" fill="#8ad1f0"/><rect x="1536.67" y="1351.26" width="7.57" height="3.35" transform="translate(-314.72 480.16) rotate(-16.1)" fill="#8ad1f0"/><rect x="1539.08" y="1356.43" width="10.04" height="3.35" transform="translate(-316.02 481.39) rotate(-16.1)" fill="#8ad1f0"/><rect x="1552.63" y="1365.9" width="6.79" height="3.35" transform="translate(-144 183.78) rotate(-6.46)" fill="#8ad1f0"/><rect x="1541.36" y="1346.57" width="7.57" height="3.35" transform="translate(-178.63 2459.04) rotate(-73.9)" fill="#8ad1f0"/><rect x="1545.29" y="1350.22" width="10.04" height="3.35" transform="translate(-178.39 2466.64) rotate(-73.9)" fill="#8ad1f0"/><rect x="1556.39" y="1362.14" width="6.79" height="3.35" transform="matrix(0.11, -0.99, 0.99, 0.11, 29.12, 2760.24)" fill="#8ad1f0"/><rect x="1592.26" y="1406.85" width="7.57" height="3.35" transform="translate(-199.75 2551.52) rotate(-73.9)" fill="#8ad1f0"/><rect x="1585.85" y="1403.21" width="10.04" height="3.35" transform="translate(-199.99 2543.91) rotate(-73.9)" fill="#8ad1f0"/><rect x="1578.01" y="1391.28" width="6.79" height="3.35" transform="matrix(0.11, -0.99, 0.99, 0.11, 19.35, 2807.58)" fill="#8ad1f0"/><rect x="1596.95" y="1402.16" width="7.57" height="3.35" transform="translate(-326.5 498.93) rotate(-16.1)" fill="#8ad1f0"/><rect x="1592.07" y="1396.99" width="10.04" height="3.35" transform="translate(-325.2 497.69) rotate(-16.1)" fill="#8ad1f0"/><rect x="1581.77" y="1387.52" width="6.79" height="3.35" transform="translate(-146.27 187.22) rotate(-6.46)" fill="#8ad1f0"/><rect x="1525.56" y="1376.38" width="90.49" height="3.35" transform="translate(-166.86 2538.64) rotate(-75)" fill="#8ad1f0"/><rect x="1576.03" y="1335.74" width="3.35" height="7.57" transform="translate(-481.48 1547.44) rotate(-46.1)" fill="#8ad1f0"/><rect x="1573.37" y="1340.24" width="3.35" height="10.04" transform="translate(-486.44 1547.25) rotate(-46.1)" fill="#8ad1f0"/><rect x="1571.13" y="1356.93" width="3.35" height="6.79" transform="translate(-500.56 1201.04) rotate(-36.46)" fill="#8ad1f0"/><rect x="1580.32" y="1339.56" width="7.57" height="3.35" transform="translate(-275.87 419.93) rotate(-13.9)" fill="#8ad1f0"/><rect x="1578.51" y="1345.86" width="10.04" height="3.35" transform="translate(-277.39 419.96) rotate(-13.9)" fill="#8ad1f0"/><rect x="1574.54" y="1360.03" width="6.79" height="3.35" transform="translate(-412.52 743.48) rotate(-23.54)" fill="#8ad1f0"/><rect x="1553.57" y="1413.79" width="7.57" height="3.35" transform="translate(-294.48 415.67) rotate(-13.9)" fill="#8ad1f0"/><rect x="1552.9" y="1407.49" width="10.04" height="3.35" transform="translate(-292.94 415.59) rotate(-13.9)" fill="#8ad1f0"/><rect x="1560.12" y="1393.32" width="6.79" height="3.35" transform="translate(-427.02 740.49) rotate(-23.54)" fill="#8ad1f0"/><rect x="1562.08" y="1413.39" width="3.35" height="7.57" transform="translate(-541.71 1561.2) rotate(-46.1)" fill="#8ad1f0"/><rect x="1564.74" y="1406.42" width="3.35" height="10.04" transform="translate(-536.76 1561.35) rotate(-46.1)" fill="#8ad1f0"/><rect x="1566.97" y="1392.98" width="3.35" height="6.79" transform="translate(-522.79 1205.62) rotate(-36.46)" fill="#8ad1f0"/><rect x="1525.88" y="1376.69" width="90.49" height="3.35" transform="translate(-303.21 453.6) rotate(-15)" fill="#8ad1f0"/><rect x="1604.15" y="1363.4" width="7.57" height="3.35" transform="translate(-103.43 2598) rotate(-76.1)" fill="#8ad1f0"/><rect x="1596.62" y="1363.97" width="10.04" height="3.35" transform="translate(-108.77 2592.31) rotate(-76.1)" fill="#8ad1f0"/><rect x="1584.07" y="1369.56" width="6.79" height="3.35" transform="translate(-303.65 2278.99) rotate(-66.46)" fill="#8ad1f0"/><rect x="1607.98" y="1367.69" width="3.35" height="7.57" transform="translate(-501.16 1499.56) rotate(-43.9)" fill="#8ad1f0"/><rect x="1602.24" y="1369.11" width="3.35" height="10.04" transform="translate(-504.61 1496.32) rotate(-43.9)" fill="#8ad1f0"/><rect x="1587.17" y="1372.97" width="3.35" height="6.79" transform="translate(-462.33 1836.28) rotate(-53.54)" fill="#8ad1f0"/><rect x="1530.32" y="1381.64" width="3.35" height="7.57" transform="translate(-532.53 1449.6) rotate(-43.9)" fill="#8ad1f0"/><rect x="1536.06" y="1377.74" width="3.35" height="10.04" transform="translate(-529.09 1452.84) rotate(-43.9)" fill="#8ad1f0"/><rect x="1551.13" y="1377.13" width="3.35" height="6.79" transform="translate(-480.29 1808.98) rotate(-53.54)" fill="#8ad1f0"/><rect x="1529.93" y="1390.15" width="7.57" height="3.35" transform="translate(-185.79 2546.27) rotate(-76.1)" fill="#8ad1f0"/><rect x="1534.99" y="1389.58" width="10.04" height="3.35" transform="translate(-180.45 2551.96) rotate(-76.1)" fill="#8ad1f0"/><rect x="1550.78" y="1383.98" width="6.79" height="3.35" transform="translate(-336.87 2257.13) rotate(-66.46)" fill="#8ad1f0"/></svg>