<svg xmlns="http://www.w3.org/2000/svg" viewBox="0 0 1809.31 1674.82"><defs><style>.cls-1{fill:#cfcece;}.cls-2{fill:#fff;}.cls-3{fill:#282828;}.cls-4{fill:#f2f2f2;}.cls-5{fill:#eedee0;}.cls-6{fill:#e72862;}.cls-7{fill:none;stroke:#d42661;stroke-linecap:round;stroke-miterlimit:10;stroke-width:180px;}</style></defs><g id="Calque_2" data-name="Calque 2"><g id="Calque_1-2" data-name="Calque 1"><path class="cls-1" d="M1730.09,1177.27c0,212.66-172.39,385-385,385a383.18,383.18,0,0,1-216.78-66.79,385.21,385.21,0,0,1-433.57,0,383.2,383.2,0,0,1-216.78,66.79c-212.66,0-385-172.39-385-385,0-172.19,113-318,269-367.23a336.11,336.11,0,0,1-10.19-82.41c0-184.48,148.79-334.21,332.92-335.72,33.82-92.56,122.65-158.64,226.92-158.64s193.1,66.08,226.92,158.64c184.13,1.51,332.92,151.24,332.92,335.72A336.11,336.11,0,0,1,1461.13,810C1617.05,859.28,1730.09,1005.07,1730.09,1177.27Z"/><ellipse class="cls-2" cx="647.25" cy="907.83" rx="129.51" ry="166.89"/><circle class="cls-3" cx="681.74" cy="907.83" r="59.48"/><ellipse class="cls-2" cx="1175.71" cy="907.83" rx="129.51" ry="166.89"/><circle class="cls-3" cx="1141.22" cy="907.83" r="59.48"/><ellipse class="cls-2" cx="911.48" cy="1195.43" rx="166.7" ry="71.61"/><ellipse class="cls-2" cx="226.84" cy="1066.62" rx="211.66" ry="230.18" transform="translate(-832.13 806.4) rotate(-64.19)"/><ellipse class="cls-2" cx="307.75" cy="1361.51" rx="238.98" ry="296.21" transform="translate(-1051.92 1045.73) rotate(-64.19)"/><ellipse class="cls-2" cx="459.01" cy="1267.04" rx="211.66" ry="296.21" transform="translate(-881.48 1128.57) rotate(-64.19)"/><ellipse class="cls-2" cx="647.25" cy="1444.72" rx="211.66" ry="296.21" transform="translate(-935.15 1398.33) rotate(-64.19)"/><ellipse class="cls-2" cx="776.76" cy="1428.66" rx="160.59" ry="311.63" transform="translate(-817.43 1107.74) rotate(-50.09)"/><ellipse class="cls-2" cx="744.78" cy="1267.04" rx="160.59" ry="311.63" transform="translate(-607.01 1843.9) rotate(-82.66)"/><ellipse class="cls-2" cx="911.48" cy="1195.43" rx="166.7" ry="71.61"/><ellipse class="cls-2" cx="1527.1" cy="1100" rx="296.21" ry="211.66" transform="translate(-326.6 774.67) rotate(-25.81)"/><ellipse class="cls-2" cx="1527.1" cy="1386.1" rx="296.21" ry="211.66" transform="translate(-451.17 803.22) rotate(-25.81)"/><ellipse class="cls-2" cx="1175.71" cy="1444.72" rx="296.21" ry="211.66" transform="translate(-511.75 656.06) rotate(-25.81)"/><ellipse class="cls-2" cx="1046.2" cy="1428.66" rx="311.63" ry="160.59" transform="translate(-672.93 1004.16) rotate(-39.91)"/><ellipse class="cls-2" cx="1078.17" cy="1267.04" rx="311.63" ry="160.59" transform="translate(-153 148.08) rotate(-7.34)"/><path class="cls-3" d="M738.71,1205.76c3.68,2,7.17,4.09,10.63,6.16,1.75,1,3.55,2,5.3,2.94s3.48,2,5.21,3l10.52,5.51c3.5,1.79,7.06,3.43,10.54,5.14A332.49,332.49,0,0,0,823.63,1245a294.07,294.07,0,0,0,175.74.11,328.73,328.73,0,0,0,42.73-16.59c3.48-1.72,7-3.37,10.54-5.15l10.51-5.54c3.41-2,7-3.92,10.49-5.92s6.94-4.2,10.61-6.19l2-1.11a25.44,25.44,0,0,1,33.31,36.47c-2.72,4.07-5.63,8-8.56,12-3.08,3.83-6.27,7.6-9.53,11.35s-6.84,7.16-10.32,10.74c-.87.91-1.76,1.77-2.7,2.59l-2.78,2.5-5.59,5a246,246,0,0,1-50.37,33.22,268,268,0,0,1-236.58.11,245.87,245.87,0,0,1-50.4-33.24l-5.58-5-2.77-2.5-1.38-1.25-1.32-1.33L726.5,1270c-1.73-1.78-3.48-3.53-5.1-5.42-3.25-3.76-6.44-7.53-9.51-11.38-2.92-4-5.82-8-8.53-12.05a25.46,25.46,0,0,1,33.27-36.49Z"/><circle class="cls-4" cx="294.61" cy="1274.15" r="191.19"/><circle class="cls-4" cx="1472.96" cy="1274.15" r="191.19"/><ellipse class="cls-5" cx="911.48" cy="1024.71" rx="86.87" ry="39.13"/><ellipse class="cls-6" cx="911.48" cy="292.72" rx="229.74" ry="192.55"/><path class="cls-7" d="M661.34,375.65s204.13,169.05,494,0"/><circle class="cls-2" cx="908.32" cy="100.17" r="100.17"/></g></g></svg>