<svg id="e9a37464-f1bf-43b4-8660-7e84819a7a3c" data-name="Calque 1" xmlns="http://www.w3.org/2000/svg" xmlns:xlink="http://www.w3.org/1999/xlink" width="2008.33" height="1542.37" viewBox="0 0 2008.33 1542.37"><defs><linearGradient id="a53dacf5-c2bc-4ef1-bede-3a281eef671a" x1="-718.48" y1="519.38" x2="95.4" y2="519.38" gradientTransform="translate(147.86 606.69) rotate(-135)" gradientUnits="userSpaceOnUse"><stop offset="0" stop-color="#cfcece" stop-opacity="0"/><stop offset="1" stop-color="#a3a3a3"/></linearGradient><linearGradient id="ba019cb7-4372-42ec-8212-168df59617bf" x1="1584.67" y1="790.44" x2="1970.78" y2="790.44" gradientUnits="userSpaceOnUse"><stop offset="0" stop-color="#cfcece" stop-opacity="0"/><stop offset="1" stop-color="#969696"/></linearGradient></defs><polygon points="653.23 921.99 755.24 1182.19 735.42 1170.76 920.99 1166.94 939.4 1166.56 945.15 1182.25 1045.19 1455.61 1044.29 1456.04 896.84 1205.06 920.99 1220.36 735.42 1216.55 724.57 1216.33 715.6 1205.12 540.95 986.93 653.23 921.99" fill="#eee285"/><polygon points="1201.95 810.78 1303.96 1070.98 1284.14 1059.55 1469.71 1055.73 1488.13 1055.36 1493.87 1071.05 1593.91 1344.41 1593.01 1344.83 1445.56 1093.85 1469.71 1109.16 1284.14 1105.34 1273.29 1105.12 1264.32 1093.91 1089.66 875.72 1201.95 810.78" fill="#eee285"/><path d="M2008.33,788.89c0,128.86-104.46,233.33-233.33,233.33H306.94C137.42,1022.22,0,884.8,0,715.28A307,307,0,0,1,275.65,409.9,466.82,466.82,0,0,1,1142.34,232a376.43,376.43,0,0,1,568.77,323.56H1775a233.33,233.33,0,0,1,233.33,233.34Z" fill="#cfcece"/><circle cx="735.42" cy="459.72" r="406.94" fill="url(#a53dacf5-c2bc-4ef1-bede-3a281eef671a)"/><circle cx="1777.72" cy="790.44" r="193.06" fill="url(#ba019cb7-4372-42ec-8212-168df59617bf)"/><path d="M1379.69,1344.49a40.57,40.57,0,1,1-81.14,0c0-22.4,40.57-83.08,40.57-83.08S1379.69,1322.09,1379.69,1344.49Z" fill="#8ad1f0"/><path d="M597.09,1344.49a40.58,40.58,0,1,1-81.15,0c0-22.4,40.57-83.08,40.57-83.08S597.09,1322.09,597.09,1344.49Z" fill="#8ad1f0"/><path d="M1704.35,1177a40.57,40.57,0,1,1-81.14,0c0-22.4,40.57-83.07,40.57-83.07S1704.35,1154.61,1704.35,1177Z" fill="#8ad1f0"/><path d="M385.12,1177a40.57,40.57,0,1,1-81.14,0c0-22.4,40.57-83.07,40.57-83.07S385.12,1154.61,385.12,1177Z" fill="#8ad1f0"/><path d="M1186.38,1177a40.58,40.58,0,1,1-81.15,0c0-22.4,40.58-83.07,40.58-83.07S1186.38,1154.61,1186.38,1177Z" fill="#8ad1f0"/></svg>