<svg xmlns="http://www.w3.org/2000/svg" viewBox="0 0 1637.22 1781.02"><defs><style>.cls-1{fill:#ffda3f;}.cls-2{fill:#cfccc4;}.cls-3{fill:#fff;}.cls-4{fill:#282828;}.cls-5{fill:#b3b2b2;}.cls-6{fill:#4a494a;}.cls-7{fill:#444;}</style></defs><g id="Calque_2" data-name="Calque 2"><g id="Calque_1-2" data-name="Calque 1"><polygon class="cls-1" points="442.52 1264.42 308.97 1460.39 311.32 1428.17 357.8 1691.79 356.85 1692.11 232.91 1454.86 227.38 1444.29 235.25 1422.64 316.23 1199.74 442.52 1264.42"/><polygon class="cls-1" points="1320.99 1199.74 1401.97 1422.64 1409.84 1444.29 1404.32 1454.86 1280.37 1692.11 1279.42 1691.79 1325.9 1428.17 1328.25 1460.39 1194.7 1264.42 1320.99 1199.74"/><polygon class="cls-1" points="981.22 1228.47 753.9 1390.87 756.29 1293.05 951.15 1507.97 993.51 1554.69 961.34 1588.74 779.64 1781.02 835.85 1522.51 846.03 1603.28 651.17 1388.36 613.43 1346.72 653.57 1290.54 815.97 1063.21 981.22 1228.47"/><path class="cls-2" d="M1637.22,944c0,212.66-172.39,385-385,385a383.18,383.18,0,0,1-216.78-66.79,385.21,385.21,0,0,1-433.57,0,383.2,383.2,0,0,1-216.78,66.79c-212.66,0-385-172.39-385-385C0,771.81,113,626,269,576.77a336.11,336.11,0,0,1-10.19-82.41c0-184.48,148.79-334.21,332.92-335.72C625.51,66.08,714.34,0,818.61,0s193.1,66.08,226.92,158.64c184.13,1.51,332.92,151.24,332.92,335.72a336.11,336.11,0,0,1-10.19,82.41C1524.18,626,1637.22,771.8,1637.22,944Z"/><ellipse class="cls-3" cx="554.38" cy="674.56" rx="129.51" ry="166.89"/><circle class="cls-4" cx="588.87" cy="674.56" r="59.48"/><ellipse class="cls-3" cx="1082.84" cy="674.56" rx="129.51" ry="166.89"/><circle class="cls-4" cx="1048.35" cy="674.56" r="59.48"/><path class="cls-5" d="M630.23,1141.31a270.81,270.81,0,0,1-43.29,49.23,303.58,303.58,0,0,1-54.48,38.92,321.06,321.06,0,0,1-130.61,39.6,326,326,0,0,1-202.36-50.12l-7.42-5c-2.45-1.69-5-3.29-7.35-5.06-4.75-3.59-9.55-7.12-14.24-10.8-4.54-3.83-9.1-7.67-13.59-11.58l-13-12.24-12.25-13c-3.9-4.49-7.74-9-11.58-13.6-3.67-4.68-7.2-9.48-10.79-14.23-1.77-2.39-3.37-4.91-5.06-7.36l-5-7.41A326,326,0,0,1,49.13,916.35,321.18,321.18,0,0,1,88.74,785.74a303.47,303.47,0,0,1,38.91-54.49A271.53,271.53,0,0,1,176.89,688a.51.51,0,0,1,.71.7,461.09,461.09,0,0,0-32,54.84,376.76,376.76,0,0,0-22.45,57.09,354.61,354.61,0,0,0-12.36,58.5,342.22,342.22,0,0,0-2.19,58.54,317.16,317.16,0,0,0,25.69,110.94,300.36,300.36,0,0,0,155.3,155.29,316.72,316.72,0,0,0,110.94,25.69,342.09,342.09,0,0,0,58.53-2.18,353.19,353.19,0,0,0,58.5-12.37,375.41,375.41,0,0,0,57.1-22.45,458.74,458.74,0,0,0,54.83-32,.5.5,0,0,1,.71.14A.51.51,0,0,1,630.23,1141.31Z"/><path class="cls-5" d="M1007.7,1140.6a458.74,458.74,0,0,0,54.83,32,375.41,375.41,0,0,0,57.1,22.45,353.19,353.19,0,0,0,58.5,12.37,342.09,342.09,0,0,0,58.53,2.18,316.72,316.72,0,0,0,110.94-25.69,300.36,300.36,0,0,0,155.3-155.29,317.16,317.16,0,0,0,25.69-110.94,342.22,342.22,0,0,0-2.19-58.54A354.61,354.61,0,0,0,1514,800.6a376.76,376.76,0,0,0-22.45-57.09,461.09,461.09,0,0,0-32-54.84.51.51,0,0,1,.14-.7.5.5,0,0,1,.57,0,271.53,271.53,0,0,1,49.24,43.28,303.47,303.47,0,0,1,38.91,54.49,321.18,321.18,0,0,1,39.61,130.61A326,326,0,0,1,1538,1118.71l-5,7.41c-1.69,2.45-3.29,5-5.06,7.36-3.59,4.75-7.12,9.55-10.79,14.23-3.84,4.55-7.68,9.11-11.58,13.6l-12.25,13-13,12.24c-4.49,3.91-9,7.75-13.59,11.58-4.69,3.68-9.49,7.21-14.24,10.8-2.39,1.77-4.9,3.37-7.35,5.06l-7.42,5a326,326,0,0,1-202.36,50.12,321,321,0,0,1-130.61-39.6,303.58,303.58,0,0,1-54.48-38.92,270.81,270.81,0,0,1-43.29-49.23.5.5,0,0,1,.14-.71A.51.51,0,0,1,1007.7,1140.6Z"/><path class="cls-4" d="M1009.05,922.72c-2.24,4-4.71,7.84-7.21,11.72-2.64,3.73-5.41,7.4-8.25,11-.69.93-1.46,1.78-2.2,2.66s-1.51,1.74-2.27,2.61q-2.28,2.61-4.62,5.19c-.77.87-1.57,1.71-2.4,2.51l-2.47,2.44c-1.64,1.64-3.32,3.24-5,4.87a215.07,215.07,0,0,1-45.89,32.39c-33.47,17.74-71.81,27-110.13,27a235.9,235.9,0,0,1-110.22-26.81,213.64,213.64,0,0,1-45.91-32.45c-3.34-3.28-6.72-6.45-9.86-9.85-1.56-1.74-3.1-3.46-4.61-5.21s-3.06-3.45-4.46-5.29c-2.83-3.66-5.59-7.35-8.22-11.09-2.48-3.91-4.94-7.77-7.16-11.78,4.16,2.07,8.09,4.28,12,6.45,2,1.07,4,2.06,6,3.08s3.91,2.08,5.85,3.1c3.95,2,7.91,3.83,11.76,5.79,1,.49,1.94.94,2.94,1.38l3,1.33,5.85,2.68a385.28,385.28,0,0,0,47.19,17.35A343.75,343.75,0,0,0,818.61,978a339.27,339.27,0,0,0,96-13.91,379.92,379.92,0,0,0,47.21-17.41c3.85-1.83,7.83-3.54,11.73-5.42s7.81-3.84,11.75-5.83,7.81-4.11,11.76-6.23S1004.91,924.81,1009.05,922.72Z"/><path class="cls-6" d="M182.39,520.93c3.22,0,3.23-5,0-5s-3.22,5,0,5Z"/><rect class="cls-2" x="447.46" y="446.43" width="364.83" height="144" transform="translate(551.07 -293.55) rotate(45)"/><rect class="cls-2" x="824.93" y="446.43" width="364.83" height="144" transform="translate(2086.23 172.71) rotate(135)"/><polygon class="cls-7" points="434.67 343.85 684.86 580.72 659.09 591.15 674.09 467.5 689.09 591.15 694.63 636.9 663.31 601.59 434.67 343.85"/><polygon class="cls-7" points="1202.55 343.85 973.91 601.59 942.59 636.9 948.13 591.15 963.13 467.5 978.13 591.15 952.36 580.72 1202.55 343.85"/></g></g></svg>