<svg xmlns="http://www.w3.org/2000/svg" xmlns:xlink="http://www.w3.org/1999/xlink" viewBox="0 0 2320.06 2320.06"><defs><style>.cls-1{opacity:0.11;fill:url(#Dégradé_sans_nom_260);}.cls-2{fill:url(#Dégradé_sans_nom_354);}.cls-3{fill:#282828;}.cls-4{fill:#fff;}.cls-5{fill:#e52421;opacity:0.42;}</style><radialGradient id="Dégradé_sans_nom_260" cx="1160.03" cy="1160.03" r="1160.03" gradientUnits="userSpaceOnUse"><stop offset="0" stop-color="#f49b49"/><stop offset="1" stop-color="#fff090"/></radialGradient><radialGradient id="Dégradé_sans_nom_354" cx="1160.03" cy="1160.03" r="694.08" gradientUnits="userSpaceOnUse"><stop offset="0" stop-color="#f08336"/><stop offset="1" stop-color="#face75"/></radialGradient></defs><g id="Calque_2" data-name="Calque 2"><g id="Calque_1-2" data-name="Calque 1"><path class="cls-1" d="M1882.84,1459.43q42.78,45.87,97.46,95.54c-334.66-17.25-81.25,344.08,0,425.33-81.25-81.25-442.57-334.67-425.32,0-33.23-36.46-65-69-95.55-97.47-1.46,41.79-.93,87.21,1.35,136.48C1236.34,1770.47,1160,2205.17,1160,2320.06c0-114.89-76.31-549.59-300.76-300.75q3.44-73.9,1.36-136.47c-30.59,28.52-62.33,61-95.55,97.46,17.26-334.67-344.08-81.25-425.32,0,81.24-81.25,334.67-442.58,0-425.33q54.68-49.83,97.45-95.54c-41.79-1.46-87.2-.93-136.47,1.35C549.6,1236.34,114.9,1160,0,1160c114.9,0,549.6-76.3,300.75-300.75q73.9,3.44,136.47,1.36c-28.51-30.58-61-62.32-97.45-95.55,334.67,17.26,81.24-344.08,0-425.32,81.24,81.24,442.58,334.66,425.32,0,33.22,36.45,65,68.94,95.55,97.45,1.46-41.79.93-87.2-1.36-136.48C1083.73,549.6,1160,114.9,1160,0c0,114.9,76.3,549.6,300.74,300.74-2.28,49.28-2.81,94.7-1.35,136.49,30.58-28.51,62.32-61,95.55-97.46-17.25,334.66,344.07,81.24,425.32,0-81.25,81.24-334.66,442.58,0,425.32-36.46,33.23-68.94,65-97.46,95.55q62.69,2.19,136.48-1.36C1770.47,1083.73,2205.17,1160,2320.06,1160c-114.89,0-549.59,76.31-300.74,300.75C1970.05,1458.5,1924.63,1458,1882.84,1459.43Z"/><path class="cls-2" d="M1854.11,1160c0,383.32-310.75,694.08-694.08,694.08a690.77,690.77,0,0,1-365.41-103.87c-146.92-91.15-257.27-235.62-304-406.37A694.58,694.58,0,0,1,466,1160C466,776.7,776.7,466,1160,466S1854.11,776.7,1854.11,1160Z"/><path class="cls-3" d="M953.51,1263.7c4.14,2.09,8.06,4.32,12,6.5s7.94,4.12,11.77,6.23,7.91,3.85,11.74,5.83,7.89,3.59,11.74,5.42a379.33,379.33,0,0,0,47.21,17.41,339.27,339.27,0,0,0,96,13.91,343.8,343.8,0,0,0,95.94-14.14,385.28,385.28,0,0,0,47.19-17.35l5.85-2.68,3-1.33c1-.44,2-.89,2.93-1.38,3.85-2,7.82-3.82,11.77-5.79,1.94-1,3.86-2.09,5.84-3.1s4-2,6-3.08c3.91-2.17,7.84-4.38,12-6.45-2.23,4-4.68,7.87-7.16,11.78-2.63,3.74-5.39,7.42-8.22,11.09-1.41,1.84-3,3.54-4.46,5.29s-3.06,3.47-4.61,5.21c-3.15,3.4-6.52,6.57-9.86,9.85a214.24,214.24,0,0,1-45.91,32.45A235.93,235.93,0,0,1,1144,1366.18c-38.32-.07-76.66-9.3-110.13-27a214.75,214.75,0,0,1-45.89-32.4c-1.68-1.62-3.36-3.22-5-4.86l-2.47-2.44c-.83-.8-1.63-1.64-2.39-2.51q-2.34-2.58-4.63-5.19c-.76-.87-1.52-1.73-2.26-2.61s-1.51-1.73-2.2-2.66c-2.85-3.65-5.61-7.32-8.26-11C958.23,1271.54,955.76,1267.69,953.51,1263.7Z"/><ellipse class="cls-4" cx="1449.25" cy="1079.95" rx="129.51" ry="166.89"/><circle class="cls-3" cx="1414.75" cy="1079.95" r="59.48"/><ellipse class="cls-5" cx="1449.25" cy="1319.87" rx="71.04" ry="38.26"/><ellipse class="cls-4" cx="870.83" cy="1079.95" rx="129.51" ry="166.89"/><circle class="cls-3" cx="905.32" cy="1079.95" r="59.48"/><ellipse class="cls-5" cx="870.83" cy="1319.87" rx="71.04" ry="38.26"/></g></g></svg>