<svg xmlns="http://www.w3.org/2000/svg" xmlns:xlink="http://www.w3.org/1999/xlink" viewBox="0 0 2211.23 2211.23"><defs><style>.cls-1{fill:#f49b49;opacity:0.45;}.cls-2{fill:url(#Dégradé_sans_nom_354);}.cls-3{fill:#282828;}.cls-4{fill:#fff;}.cls-5{fill:#e52421;opacity:0.42;}</style><radialGradient id="Dégradé_sans_nom_354" cx="1105.62" cy="1105.62" r="694.08" gradientUnits="userSpaceOnUse"><stop offset="0" stop-color="#f08336"/><stop offset="1" stop-color="#face75"/></radialGradient></defs><g id="Calque_2" data-name="Calque 2"><g id="Calque_1-2" data-name="Calque 1"><path class="cls-1" d="M1794.52,1391c27.18,29.15,58.14,59.4,92.89,91.06-319-16.44-77.44,327.94,0,405.38-77.44-77.44-421.82-319-405.37,0-31.67-34.75-61.92-65.72-91.07-92.9q-2.09,59.74,1.29,130.08c-213.92-237.17-286.64,177.14-286.64,286.64,0-109.5-72.73-523.81-286.64-286.64,2.17-47,2.68-90.25,1.29-130.07q-43.72,40.77-91.07,92.89c16.45-319-327.94-77.44-405.37,0,77.43-77.44,319-421.82,0-405.38,34.74-31.66,65.71-61.91,92.88-91.06-39.83-1.39-83.1-.89-130.07,1.29C523.82,1178.34,109.51,1105.61,0,1105.61c109.51,0,523.82-72.72,286.64-286.63,47,2.17,90.25,2.68,130.07,1.29-27.17-29.15-58.14-59.4-92.88-91.07,319,16.45,77.43-327.94,0-405.37,77.43,77.43,421.82,319,405.37,0q47.49,52.11,91.07,92.88c1.39-39.83.88-83.11-1.29-130.07C1032.89,523.82,1105.62,109.51,1105.62,0c0,109.51,72.72,523.82,286.64,286.64-2.18,47-2.68,90.25-1.29,130.08,29.15-27.18,59.4-58.15,91.07-92.89-16.45,319,327.93,77.43,405.37,0-77.44,77.43-319,421.82,0,405.37-34.75,31.67-65.71,61.92-92.89,91.07,39.83,1.39,83.12.88,130.08-1.29-237.18,213.91,177.13,286.63,286.63,286.63-109.5,0-523.81,72.73-286.63,286.65Q1854.16,1389,1794.52,1391Z"/><path class="cls-2" d="M1799.69,1105.61c0,383.33-310.74,694.08-694.08,694.08A690.71,690.71,0,0,1,740.2,1695.82c-146.91-91.15-257.27-235.62-304.05-406.37a694.88,694.88,0,0,1-24.61-183.84c0-383.33,310.74-694.07,694.07-694.07S1799.69,722.28,1799.69,1105.61Z"/><path class="cls-3" d="M899.1,1209.29c4.14,2.09,8.06,4.31,11.95,6.5s7.94,4.11,11.76,6.23,7.92,3.84,11.75,5.82,7.88,3.59,11.73,5.42a378.46,378.46,0,0,0,47.22,17.41,338.8,338.8,0,0,0,96,13.91,343.73,343.73,0,0,0,95.94-14.13,386.1,386.1,0,0,0,47.2-17.36l5.84-2.68,3-1.33c1-.43,2-.88,2.94-1.38,3.85-2,7.81-3.82,11.76-5.78,1.94-1,3.86-2.09,5.85-3.1s4-2,6-3.09c3.91-2.16,7.84-4.38,12-6.44-2.22,4-4.68,7.87-7.16,11.77s-5.39,7.43-8.22,11.09c-1.4,1.85-2.94,3.54-4.45,5.29s-3.06,3.48-4.61,5.21c-3.15,3.41-6.53,6.58-9.86,9.85a213.6,213.6,0,0,1-45.92,32.45,235.9,235.9,0,0,1-110.22,26.81c-38.31-.07-76.66-9.29-110.13-27a215.71,215.71,0,0,1-45.89-32.4c-1.68-1.62-3.36-3.23-5-4.87l-2.47-2.44c-.83-.79-1.63-1.63-2.4-2.51q-2.34-2.58-4.62-5.19c-.76-.86-1.53-1.72-2.27-2.6s-1.51-1.73-2.2-2.67c-2.84-3.64-5.61-7.31-8.25-11C903.81,1217.12,901.35,1213.27,899.1,1209.29Z"/><ellipse class="cls-4" cx="1394.83" cy="1025.54" rx="129.51" ry="166.89"/><circle class="cls-3" cx="1360.34" cy="1025.54" r="59.48"/><ellipse class="cls-5" cx="1394.83" cy="1265.46" rx="71.04" ry="38.26"/><ellipse class="cls-4" cx="816.41" cy="1025.54" rx="129.51" ry="166.89"/><circle class="cls-3" cx="850.9" cy="1025.54" r="59.48"/><ellipse class="cls-5" cx="816.41" cy="1265.46" rx="71.04" ry="38.26"/></g></g></svg>